**ABCDEFGHIJKLMNOPQRSTUVWXYZabcdefghijklmnopqrstuvwxyz**************************
**PARASOLID !"#$%&'()*+,-./:;<=>?@[\]^_`{|}~0123456789**************************
**PART1;
MC=AMD64;
MC_MODEL=Intel64 Family 6 Model 126 Stepping 5, GenuineIntel;
MC_ID=unknown;
OS=Windows_NT;
OS_RELEASE=unknown;
FRU=Parasolid Version 34.1, build 225,  5-24-2022;
APPL=SOLIDWORKS 2023-2022300;
SITE=;
USER=unknown;
FORMAT=text;
GUISE=transmit;
KEY=harzgard;
FILE=harzgard.x_t;
DATE=Wed Jan 22 10:13:00 2025;
**PART2;
SCH=SCH_3401225_34101;
USFLD_SIZE=0;
**PART3;
**END_OF_HEADER*****************************************************************
T51 : TRANSMIT FILE created by modeller version 340122523 SCH_3401225_34101_1300
6231 0 12 36 CCCI7 lattice222 0 CCCI4 mesh1006 0 I8 polyline1008 0 CCCCCCCDI5 ow
ner1040 0 CCCI16 boundary_lattice222 0 CCCI13 boundary_mesh1006 0 I17 boundary_p
olyline1008 0 CCCA16 index_map_offset0 0 1 dA9 index_map82 0 A17 node_id_index_m
ap82 0 A20 schema_embedding_map82 0 A5 child12 0 A14 lowest_node_id0 0 1 dA16 me
sh_offset_data206 0 Z1 388 2 3 0 0 0 0 0 0 0 1e3 1e-8 0 4 0 1 0 1 1 5 0 6 7 0 0
 0 8 9 0 0 0 0 0 0 0 0 81 255 2 2 368 10 1 11 0 0 0 0 12 70 11 CI9 list_type0 0
 1 uI10 notransmit0 0 1 lCCCDCCDI12 finger_index0 0 1 dI12 finger_block1012 0 CZ
3 0 4 T1 0 0 10 20 1 13 13 13 255 5 55 0 1 0 14 0 0 15 0 54 255 6 275 0 16 17 0
 0 +-370242055556177e-34 0 -.001 -3702420555561765e-32 0 -1 .003 .001 -1 0 37024
20555561765e-32 31 255 7 258 0 9 18 0 0 --1805559322863035e-50 0 0 -370242055556
1765e-32 0 -1 -1 0 3702420555561765e-32 .003 19 9 CCCCCCI5 frame230 0 CA5 owner1
2 0 Z8 59 0 1 15 0 19 0 V0 16 255 9 255 0 ?20 0 21 7 0 0 1 17 255 20 0 22 20 20
 0 23 9 0 0 +16 21 248 0 ?24 9 25 18 0 0 1 17 24 0 26 24 24 0 27 21 0 0 +16 25 2
18 0 ?28 21 29 30 0 0 1 31 18 251 0 21 30 7 0 +-370242055556177e-34 0 -.001 -370
2420555561765e-32 0 -1 -1 0 3702420555561765e-32 .004 31 30 221 0 25 31 18 0 --1
851210277780885e-34 0 -.005 -3702420555561765e-32 0 -1 -1 0 3702420555561765e-32
 .005 31 31 214 0 29 32 30 0 +-2591694388893235e-34 0 -.007 -3702420555561765e-3
2 0 -1 -1 0 3702420555561765e-32 .007 16 29 211 0 ?33 25 34 31 0 0 1 31 32 106 0
 35 36 31 0 +-1851210277780885e-34 0 -.005 -3702420555561765e-32 0 -1 -1 0 37024
20555561765e-32 .004 16 35 78 0 ?37 34 38 32 0 0 1 31 36 104 0 38 39 32 0 +-5553
63083334265e-33 0 -.015 -3702420555561765e-32 0 -1 -1 0 3702420555561765e-32 .00
7 16 38 68 0 ?40 35 41 36 0 0 1 31 39 103 0 41 42 36 0 +-555363083334265e-33 0 -
.015 -3702420555561765e-32 0 -1 -1 0 3702420555561765e-32 .0065 16 41 63 0 ?43 3
8 44 39 0 0 1 31 42 193 0 34 45 39 0 +0 0 0 0 0 1 1 0 0 .002 16 34 164 0 ?46 29
 35 42 0 0 1 31 45 194 0 44 0 42 0 +0 0 .03 0 0 1 1 0 0 .002 16 44 174 0 ?47 41
 0 45 0 0 1 17 47 0 48 47 47 0 49 44 0 0 +15 255 48 184 0 47 50 0 17 49 0 51 49
 49 0 47 44 0 0 -15 51 180 0 49 52 53 14 255 52 177 54 ?50 55 51 5 56 -0 0 50 55
 19 15 53 181 0 46 52 0 17 46 0 53 46 46 0 57 34 0 0 +17 57 0 58 57 57 0 46 34 0
 0 -15 58 166 0 57 14 0 14 14 91 59 ?60 0 22 5 61 -0 0 60 0 19 81 1 59 372 62 14
 63 0 54 64 65 14 60 86 64 ?66 14 26 5 67 -0 0 66 14 19 15 22 256 0 20 14 58 50
 255 61 102 0 14 67 17 0 +274158359404926e-50 0 740484111112353e-34 -37024205555
61765e-32 0 -1 -1 0 3702420555561765e-32 13 19 58 0 0 0 0 0 0 8 14 51 255 67 101
 0 60 68 61 0 --79602041944578e-32 0 -.0215 -3702420555561765e-32 0 -1 .004 -1 0
 3702420555561765e-32 54 17 238 0 69 61 6 0 +-2591694388893235e-34 0 -.007 -3702
420555561765e-32 0 -1 .005 .002 -1 0 3702420555561765e-32 14 69 231 70 ?16 50 71
 5 17 +0 0 16 50 19 81 1 70 376 62 69 72 0 64 73 74 14 16 268 73 ?0 69 75 5 6 +0
 0 0 69 19 14 50 182 76 ?69 52 48 5 77 +0 0 69 52 19 15 71 232 0 78 69 79 17 78
 0 71 78 78 0 28 25 0 0 -15 79 233 0 80 69 0 17 80 0 79 80 80 0 33 29 0 0 -17 33
 0 81 33 33 0 80 29 0 0 +15 81 212 0 33 82 83 14 82 76 84 ?85 66 81 5 86 -0 0 85
 66 19 15 83 134 0 87 82 0 17 87 0 83 87 87 0 40 38 0 0 -17 40 0 88 40 40 0 87 3
8 0 0 +15 88 70 0 40 85 0 14 85 71 89 ?55 82 90 5 91 -0 0 55 82 19 81 1 89 384 6
2 85 92 0 84 93 94 14 55 66 93 ?52 85 95 5 96 -0 0 52 85 19 15 90 133 0 97 85 88
 50 91 98 0 85 96 86 0 +.007 0 -.015 3702420555561765e-32 0 1 1 0 -3702420555561
765e-32 53 255 96 97 0 55 56 91 0 -0 0 -.015 .0065 -3702420555561765e-32 0 -1 1
 0 -3702420555561765e-32 51 86 99 0 82 91 68 0 --79602041944578e-32 0 -.0215 -37
02420555561765e-32 0 -1 .007 -1 0 3702420555561765e-32 50 68 100 0 66 86 67 0 +.
004 0 -.005 -3702420555561765e-32 0 -1 -1 0 3702420555561765e-32 14 66 81 98 ?82
 60 99 5 68 -0 0 82 60 19 81 1 98 388 62 66 100 0 93 0 101 15 99 219 0 28 66 102
 17 28 0 99 28 28 0 78 25 0 0 +15 102 80 0 37 66 0 17 37 0 102 37 37 0 103 35 0
 0 +17 103 0 104 103 103 0 37 35 0 0 -15 104 136 0 103 60 0 80 7 CCCCCDI12 legal
_owners0 16 1 lCZ1 62 105 106 9000 1 1 1 1 1 1 1 1 0 FFFFTFTFFFFFFFFF1 81 3 100
 387 107 66 108 98 109 0 110 0 0 81 1 93 386 62 55 109 0 89 98 111 82 255 1 101
 1780940911 81 3 109 385 107 55 112 93 92 100 113 0 0 82 1 111 1779171433 80 3 1
07 114 115 9000 0 0 0 0 3 5 0 0 0 FFFFTFFFFFFFFFFF1 1 1 81 1 112 332 116 55 0 10
9 117 118 119 81 3 92 383 107 85 117 89 120 109 121 0 0 82 6 113 0 -1079090092 3
1156000 0 0 0 81 1 117 331 116 85 0 92 122 112 123 81 3 120 381 107 82 122 84 12
4 92 125 0 0 82 6 121 0 -1079090092 31156000 0 0 0 81 1 122 330 116 82 0 120 108
 117 126 81 1 84 382 62 82 120 0 76 89 127 81 3 124 379 107 50 128 76 129 120 13
0 0 0 82 6 125 0 -708346085 31156000 0 0 0 81 1 128 334 116 50 0 124 118 131 132
 81 1 76 380 62 50 124 0 73 84 133 81 3 129 377 107 16 134 73 72 124 135 0 0 82
 6 130 0 -814348531 31156000 0 0 0 81 1 134 336 116 16 0 129 131 0 136 81 1 73 3
78 62 16 129 0 70 76 137 81 3 72 375 107 69 131 70 138 129 139 0 0 82 6 135 0 -6
17857232 31156000 0 0 0 81 1 131 335 116 69 0 72 128 134 140 81 3 138 373 107 60
 141 64 63 72 142 0 0 82 6 139 0 -708346085 31156000 0 0 0 81 1 141 328 116 60 0
 138 143 108 144 81 1 64 374 62 60 138 0 59 70 145 81 3 63 371 107 14 143 59 146
 138 147 0 0 82 6 142 0 -617857232 31156000 0 0 0 81 1 143 327 116 14 0 63 0 141
 148 81 3 146 369 107 52 118 54 0 63 149 0 0 82 6 147 0 -617857232 31156000 0 0
 0 81 1 118 333 116 52 0 146 112 128 150 81 1 54 370 62 52 146 0 0 59 151 82 6 1
49 0 -814348531 31156000 0 0 0 82 1 151 -1524498323 80 1 116 0 152 8001 0 0 0 0
 3 5 0 0 0 FFFFTFTFFFFFFFFF2 83 255 3 150 .666666666666667 .698039215686275 .768
627450980392 79 255 15 152 SDL/TYSA_COLOUR83 3 148 .776470588235294 .75686274509
8039 .737254901960784 82 1 145 1781530737 81 1 108 329 116 66 0 100 141 122 153
 83 3 144 .776470588235294 .756862745098039 .737254901960784 83 3 153 .776470588
235294 .756862745098039 .737254901960784 83 3 140 .776470588235294 .756862745098
039 .737254901960784 82 1 137 -1036779407 83 3 136 .776470588235294 .75686274509
8039 .737254901960784 82 1 133 -1526464403 83 3 132 .666666666666667 .6980392156
86275 .768627450980392 82 1 127 1780351087 83 3 126 .776470588235294 .7568627450
98039 .737254901960784 83 3 123 .792156862745098 .819607843137255 .9333333333333
33 83 3 119 .647058823529412 .619607843137255 .588235294117647 79 18 115 DOWNSTR
EAM_FACE_ID82 6 110 0 -708346085 31156000 0 0 0 79 14 106 SWEntUnchanged51 56 19
0 0 52 77 96 0 -0 0 .03 0 0 -1 .002 -1 0 0 50 77 192 0 50 0 56 0 +0 0 .03 0 0 1
 1 0 0 17 97 0 90 97 97 0 43 41 0 0 -17 43 0 95 43 43 0 97 41 0 0 +15 95 65 0 43
 55 0 82 1 94 1779761257 15 75 269 0 23 16 154 17 23 0 75 23 23 0 20 9 0 0 -15 1
54 270 0 27 16 0 17 27 0 154 27 27 0 24 21 0 0 -82 1 74 -1295515537 15 26 249 0
 24 60 104 82 1 65 1782120561 19 15 54 0 1 0 8 5 0 S0 74 4 CI16 index_map_offset
0 0 1 dCCZ20 13 10 0 0 100 98 155 156 157 158 159 11 134 2 0 0 0 0 0 0 0 0 0 0 8
1 2 155 197 160 1 0 156 0 0 0 161 81 2 156 203 162 1 155 157 0 0 0 163 81 2 157
 204 164 1 156 158 0 0 165 0 81 1 158 282 166 1 157 159 0 0 167 81 2 159 302 168
 1 158 11 0 0 0 169 81 2 11 325 170 1 159 2 0 0 0 0 80 2 170 171 172 9000 0 0 0
 0 3 5 0 0 0 FFTFFFFFFFFFFFFF9 1 79 16 172 BODY_RECIPE_200180 2 168 173 174 9000
 0 0 0 0 3 5 0 0 0 FFTFFFFFFFFFFFFF9 1 82 1 169 1 79 24 174 BODY_IN_LIGHTWEIGHT_
PERM80 1 166 175 176 9000 1 1 1 1 1 1 1 1 0 FFTFFFFFFFFFFFFF1 82 1 167 2517445 7
9 10 176 BODY_MATCH80 2 164 177 178 9000 0 0 0 0 3 5 0 0 0 FFTFTTTFFTFFFFFF3 3 8
4 255 7 165 Fillet279 21 178 SWIMPLICITBODYNAME_ID80 2 162 179 180 9000 0 0 0 0
 3 5 0 0 0 FFTFFFFFFFFFFFFF9 1 82 1 163 60 79 30 180 LAST_BODY_MODIFYING_FEATURE
_ID80 2 160 181 182 9000 0 0 0 0 3 5 0 0 0 FFTFFFFFFFFFFTFF9 1 82 1 161 109 79 1
9 182 ENT_TIME_STAMP_200180 2 10 183 184 9000 0 0 0 0 3 5 0 0 0 FFTFFFFFFFFFFFFF
9 1 82 1 12 102 79 12 184 ATOM_ID_20011 0 
