**ABCDEFGHIJKLMNOPQRSTUVWXYZabcdefghijklmnopqrstuvwxyz**************************
**PARASOLID !"#$%&'()*+,-./:;<=>?@[\]^_`{|}~0123456789**************************
**PART1;
MC=AMD64;
MC_MODEL=Intel64 Family 6 Model 126 Stepping 5, GenuineIntel;
MC_ID=unknown;
OS=Windows_NT;
OS_RELEASE=unknown;
FRU=Parasolid Version 34.1, build 225,  5-24-2022;
APPL=SOLIDWORKS 2023-2022300;
SITE=;
USER=unknown;
FORMAT=text;
GUISE=transmit;
KEY=motor;
FILE=motor.x_t;
DATE=Wed Jan 22 10:11:51 2025;
**PART2;
SCH=SCH_3401225_34101;
USFLD_SIZE=0;
**PART3;
**END_OF_HEADER*****************************************************************
T51 : TRANSMIT FILE created by modeller version 340122523 SCH_3401225_34101_1300
6231 0 12 36 CCCI7 lattice222 0 CCCI4 mesh1006 0 I8 polyline1008 0 CCCCCCCDI5 ow
ner1040 0 CCCI16 boundary_lattice222 0 CCCI13 boundary_mesh1006 0 I17 boundary_p
olyline1008 0 CCCA16 index_map_offset0 0 1 dA9 index_map82 0 A17 node_id_index_m
ap82 0 A20 schema_embedding_map82 0 A5 child12 0 A14 lowest_node_id0 0 1 dA16 me
sh_offset_data206 0 Z1 609 2 3 0 0 0 0 0 0 0 1e3 1e-8 0 4 0 1 0 1 1 5 0 6 7 0 0
 0 8 9 0 0 0 0 0 0 0 0 81 255 2 2 575 10 1 11 0 0 0 0 12 70 11 CI9 list_type0 0
 1 uI10 notransmit0 0 1 lCCCDCCDI12 finger_index0 0 1 dI12 finger_block1012 0 CZ
3 0 4 T1 0 0 10 20 1 13 13 13 255 5 31 0 1 0 14 0 0 15 0 54 255 6 350 0 16 17 0
 0 +0 0 -5e-4 0 0 -1 .002570760982677145 5e-4 -1 0 0 31 255 7 333 0 9 18 0 0 -0
 0 -5e-4 0 0 -1 -1 0 0 .003070760982677145 19 9 CCCCCCI5 frame230 0 CA5 owner12
 0 Z8 9 0 1 15 0 19 0 V0 16 255 9 330 0 ?20 0 21 7 0 0 1 17 255 20 0 22 20 20 0
 23 9 0 0 +16 21 323 0 ?24 9 25 18 0 0 1 17 24 0 26 24 24 0 27 21 0 0 +16 25 275
 0 ?28 21 29 30 0 0 1 31 18 326 0 21 31 7 0 +0 0 -.001 0 0 -1 -1 0 0 .0025707609
82677145 31 31 248 0 29 32 18 0 -0 0 .049 0 0 1 1 0 0 .0125 16 29 245 0 ?33 25 3
4 31 0 0 1 31 32 240 0 34 35 31 0 +0 0 .05 0 0 1 1 0 0 .0115 16 34 237 0 ?36 29
 37 32 0 0 1 31 35 87 0 38 39 32 0 +0 0 .05 0 0 1 1 0 0 .0035 16 38 58 0 ?40 37
 41 35 0 0 1 31 39 88 0 41 42 35 0 +0 0 .052 0 0 1 1 0 0 .0035 16 41 68 0 ?43 38
 44 39 0 0 1 31 42 133 0 37 45 39 0 +0 0 .052 0 0 1 1 0 0 .002 16 37 104 0 ?46 3
4 38 42 0 0 1 31 45 134 0 44 47 42 0 +0 0 .064 0 0 1 1 0 0 .002 16 44 114 0 ?48
 41 49 45 0 0 1 31 47 214 0 49 50 45 0 +0 0 .03 0 0 -1 -1 0 0 .0125 16 49 177 0
 ?51 44 52 47 0 0 1 31 50 215 0 53 54 47 0 +0 0 0 0 0 -1 -1 0 0 .012 16 53 186 0
 ?55 52 56 50 0 0 1 31 54 216 0 52 30 50 0 +0 0 .03 0 0 -1 -1 0 0 .012 16 52 180
 0 ?57 49 53 54 0 0 1 31 30 305 0 25 58 54 0 +0 0 0 0 0 -1 -1 0 0 .0030707609826
77145 31 58 457 0 59 60 30 0 +-.0085 0 .04 0 0 1 -1 0 0 .0015 16 59 430 0 ?61 62
 0 58 0 0 1 31 60 458 0 62 63 58 0 +-.0085 0 .05 0 0 1 -1 0 0 .0015 16 62 433 0
 ?64 65 59 60 0 0 1 31 63 459 0 65 66 60 0 +.0085 0 .05 0 0 1 1 0 0 .0015 16 65
 415 0 ?67 56 62 63 0 0 1 31 66 460 0 56 0 63 0 +.0085 0 .04 0 0 1 1 0 0 .0015 1
6 56 412 0 ?68 53 65 66 0 0 1 17 68 0 69 68 68 0 70 56 0 0 +15 255 69 425 0 68 7
1 0 17 70 0 72 70 70 0 68 56 0 0 -15 72 421 0 70 73 74 14 255 73 418 75 ?71 76 7
2 5 77 -0 0 71 76 19 15 74 422 0 67 73 0 17 67 0 74 67 67 0 78 65 0 0 +17 78 0 7
9 78 78 0 67 65 0 0 -15 79 405 0 78 80 81 14 80 1 82 ?83 14 79 5 84 +0 0 83 14 1
9 15 81 397 0 85 80 86 17 85 0 81 85 85 0 64 62 0 0 -15 86 238 0 36 80 87 17 36
 0 86 36 36 0 88 34 0 0 +15 87 60 0 89 80 0 17 89 0 87 89 89 0 40 38 0 0 -17 40
 0 90 40 40 0 89 38 0 0 +15 90 75 0 40 83 0 14 83 71 91 ?92 80 93 5 94 -0 0 92 8
0 19 81 1 91 581 95 83 96 0 82 97 98 14 92 76 97 ?99 83 100 5 101 +0 0 99 83 19
 15 93 74 0 102 83 90 51 255 94 84 0 83 101 84 0 -0 0 .052 0 0 -1 .0035 -1 0 0 1
3 19 10 0 0 0 0 0 0 8 14 14 14 172 103 ?80 0 104 5 105 -0 0 80 0 19 81 1 103 585
 95 14 106 0 97 107 108 15 104 246 0 33 14 109 51 105 30 0 14 110 17 0 -0 0 .05
 0 0 -1 .0125 -1 0 0 50 255 110 24 0 111 84 105 0 +0 0 0 0 0 1 1 0 0 54 17 266 0
 112 105 6 0 +0 0 .049 0 0 1 .0115 .001 1 0 0 14 112 259 107 ?113 111 114 5 17 +
0 0 113 111 19 81 1 107 587 95 112 115 0 103 116 117 14 113 289 116 ?118 112 22
 5 119 -0 0 118 112 19 14 111 164 120 ?112 121 122 5 110 -0 0 112 121 19 15 114
 260 0 123 112 124 17 123 0 114 123 123 0 33 29 0 0 -15 124 261 0 88 112 0 17 88
 0 124 88 88 0 36 34 0 0 -17 33 0 104 33 33 0 123 29 0 0 +81 1 120 591 95 111 12
5 0 116 126 127 14 121 202 126 ?111 128 129 5 130 +0 0 111 128 19 15 122 277 0 1
31 111 132 17 131 0 122 131 131 0 28 25 0 0 -15 132 162 0 55 111 0 17 55 0 132 5
5 55 0 133 53 0 0 +17 133 0 134 133 133 0 55 53 0 0 -15 134 206 0 133 121 0 17 2
8 0 135 28 28 0 131 25 0 0 +15 135 293 0 28 113 0 81 1 126 593 95 121 136 0 120
 137 138 14 128 194 137 ?121 139 140 5 141 +0 0 121 139 19 15 129 205 0 57 121 1
34 51 130 212 0 121 119 141 0 +0 0 .03 0 0 -1 .012 -1 0 0 51 119 302 0 113 142 1
30 0 -0 0 -.001 0 0 1 .003070760982677145 1 0 0 50 141 211 0 128 130 143 0 +0 0
 .03 0 0 -1 -1 0 0 50 143 132 0 139 141 144 0 +0 0 .064 0 0 1 1 0 0 14 139 122 1
45 ?128 99 146 5 143 +0 0 128 99 19 51 144 130 0 99 143 101 0 -0 0 .064 0 0 -1 .
002 -1 0 0 14 99 117 147 ?139 92 148 5 144 -0 0 139 92 19 50 101 86 0 92 144 94
 0 +0 0 .052 0 0 1 1 0 0 81 1 147 599 95 99 149 0 145 150 151 15 148 120 0 152 9
9 153 17 152 0 148 152 152 0 48 44 0 0 -15 153 121 0 46 99 0 17 46 0 153 46 46 0
 154 37 0 0 +17 154 0 100 154 154 0 46 37 0 0 -15 100 106 0 154 92 155 15 155 78
 0 43 92 0 17 43 0 155 43 43 0 102 41 0 0 +17 102 0 93 102 102 0 43 41 0 0 -17 4
8 0 146 48 48 0 152 44 0 0 +15 146 124 0 48 139 0 80 7 CCCCCDI12 legal_owners0 1
6 1 lCZ1 95 156 157 9000 1 1 1 1 1 1 1 1 0 FFFFTFTFFFFFFFFF1 81 3 149 598 158 99
 159 147 160 161 162 0 0 81 1 145 597 95 139 160 0 137 147 163 81 1 150 601 95 1
18 161 0 147 164 165 82 255 1 151 1695154288 14 118 294 150 ?16 113 26 5 142 +0
 0 16 113 19 81 3 161 600 158 118 166 150 149 167 168 0 0 81 1 164 603 95 16 167
 0 150 169 170 82 1 165 709820540 14 16 343 164 ?171 118 172 5 6 +0 0 171 118 19
 81 3 167 602 158 16 173 164 161 174 175 0 0 81 1 169 605 95 171 174 0 164 176 1
77 82 1 170 1098186876 14 171 436 169 ?76 16 178 5 179 -0 0 76 16 19 81 3 174 60
4 158 171 180 169 167 181 182 0 0 81 1 176 607 95 76 181 0 169 183 184 82 1 177
 1896743048 14 76 441 176 ?73 171 185 5 186 -0 0 73 171 19 81 3 181 606 158 76 1
87 176 174 188 189 0 0 81 1 183 609 95 71 188 0 176 0 190 82 1 184 1894776968 14
 71 423 183 ?0 73 69 5 191 +0 0 0 73 19 81 3 188 608 158 71 192 183 181 0 193 0
 0 82 1 190 1890779272 80 3 158 194 195 9000 0 0 0 0 3 5 0 0 0 FFFFTFFFFFFFFFFF1
 1 1 81 1 192 522 196 71 0 188 197 0 198 82 6 193 0 211271940 31155999 0 0 0 80
 1 196 0 199 8001 0 0 0 0 3 5 0 0 0 FFFFTFTFFFFFFFFF2 81 1 197 521 196 73 0 200
 187 192 201 83 255 3 198 1 .949019607843137 .909803921568627 81 3 200 576 158 7
3 197 75 0 202 203 0 0 81 1 187 520 196 76 0 181 180 197 204 83 3 201 1 .9490196
07843137 .909803921568627 81 1 180 519 196 171 0 174 173 187 205 83 3 204 1 .949
019607843137 .909803921568627 81 1 173 518 196 16 0 167 166 180 206 83 3 205 1 .
949019607843137 .909803921568627 81 1 166 517 196 118 0 161 207 173 208 83 3 206
 1 .949019607843137 .909803921568627 81 1 207 516 196 113 0 209 210 166 211 83 3
 208 1 .949019607843137 .909803921568627 81 3 209 588 158 113 207 116 115 125 21
2 0 0 81 1 210 515 196 112 0 115 213 207 214 83 3 211 1 .949019607843137 .909803
921568627 81 3 115 586 158 112 210 107 106 209 215 0 0 81 1 213 514 196 111 0 12
5 216 210 217 83 3 214 1 .949019607843137 .909803921568627 81 3 125 590 158 111
 213 120 209 136 218 0 0 81 1 216 513 196 121 0 136 219 213 220 83 3 217 1 .9490
19607843137 .909803921568627 81 3 136 592 158 121 216 126 125 221 222 0 0 81 1 2
19 512 196 128 0 221 223 216 224 83 3 220 .866666666666667 .909803921568627 1 81
 3 221 594 158 128 219 137 136 160 225 0 0 81 1 223 511 196 139 0 160 159 219 22
6 83 3 224 1 .949019607843137 .909803921568627 81 3 160 596 158 139 223 145 221
 149 227 0 0 81 1 159 510 196 99 0 149 228 223 229 83 3 226 1 .949019607843137 .
909803921568627 81 1 228 509 196 92 0 230 231 159 232 83 3 229 1 .94901960784313
7 .909803921568627 81 3 230 582 158 92 228 97 96 106 233 0 0 81 1 231 508 196 83
 0 96 234 228 235 83 3 232 .83921568627451 .466666666666667 .368627450980392 81
 3 96 580 158 83 231 91 202 230 236 0 0 81 1 234 507 196 80 0 202 237 231 238 83
 3 235 .83921568627451 .466666666666667 .368627450980392 81 3 202 578 158 80 234
 82 200 96 239 0 0 81 1 237 506 196 14 0 106 0 234 240 83 3 238 1 .9490196078431
37 .909803921568627 81 3 106 584 158 14 237 103 230 115 241 0 0 83 3 240 1 .9490
19607843137 .909803921568627 82 6 241 0 -1012195601 31155996 0 0 0 81 1 82 579 9
5 80 202 0 75 91 242 82 6 239 0 211271940 31155999 0 0 0 81 1 75 577 95 73 200 0
 0 82 243 82 1 242 144048264 82 1 243 1892745352 82 6 236 0 -146514414 31155994
 0 0 0 81 1 97 583 95 92 230 0 91 103 244 82 6 233 0 190843867 31155995 0 0 0 82
 1 244 870711408 82 6 227 0 190843867 31155995 0 0 0 81 1 137 595 95 128 221 0 1
26 145 245 82 6 225 0 -1206818072 31155996 0 0 0 82 1 245 -869007244 82 6 222 0
 -1206818072 31155996 0 0 0 82 6 218 0 -809604615 31155996 0 0 0 82 6 215 0 -101
2195601 31155996 0 0 0 81 1 116 589 95 113 209 0 107 120 246 82 6 212 0 -6766515
97 31155996 0 0 0 82 1 246 711786620 82 6 203 0 211271940 31155999 0 0 0 79 255
 15 199 SDL/TYSA_COLOUR79 18 195 DOWNSTREAM_FACE_ID50 191 456 0 71 0 77 0 +.0085
 0 .04 0 0 1 1 0 0 51 77 454 0 73 191 179 0 +.0085 0 .04 0 0 1 .0015 1 0 0 51 17
9 453 0 171 77 186 0 +-.0085 0 .04 0 0 1 .0015 1 0 0 50 186 451 0 76 179 142 0 +
-.0085 0 .04 0 0 -1 -1 0 0 50 142 304 0 118 186 119 0 +0 0 -.001 0 0 -1 -1 0 0 8
2 6 189 0 211271940 31155999 0 0 0 15 185 443 0 61 76 0 17 61 0 185 61 61 0 247
 59 0 0 +17 247 0 178 247 247 0 61 59 0 0 -15 178 439 0 247 171 248 15 248 440 0
 64 171 0 17 64 0 248 64 64 0 85 62 0 0 +82 6 182 0 211271940 31155999 0 0 0 82
 6 175 0 -676651597 31155996 0 0 0 15 172 344 0 23 16 249 17 23 0 172 23 23 0 20
 9 0 0 -15 249 345 0 27 16 0 17 27 0 249 27 27 0 24 21 0 0 -82 6 168 0 -67665159
7 31155996 0 0 0 15 26 324 0 24 118 0 82 1 163 1693188208 82 6 162 0 190843867 3
1155995 0 0 0 79 14 157 SWEntUnchanged17 57 0 129 57 57 0 250 52 0 0 +17 250 0 1
40 250 250 0 57 52 0 0 -15 140 196 0 250 128 251 15 251 197 0 51 128 0 17 51 0 2
51 51 51 0 252 49 0 0 +17 252 0 109 252 252 0 51 49 0 0 -15 109 170 0 252 14 0 8
2 1 138 -871038860 82 1 127 -859570054 15 22 331 0 20 113 135 82 1 117 -33370919
4 50 84 3 0 80 94 110 0 +0 0 .05 0 0 1 1 0 0 82 1 108 -858914698 82 1 98 8726774
84 19 15 32 0 1 0 8 5 0 S0 74 4 CI16 index_map_offset0 0 1 dCCZ20 13 10 0 0 188
 183 253 254 255 256 257 11 192 2 0 0 0 0 0 0 0 0 0 0 81 2 253 309 258 1 0 254 0
 0 0 259 81 2 254 315 260 1 253 255 0 0 0 261 81 2 255 316 262 1 254 256 0 0 263
 0 81 2 256 364 264 1 255 257 0 0 0 265 81 1 257 481 266 1 256 11 0 0 267 81 2 1
1 505 268 1 257 2 0 0 0 0 80 2 268 269 270 9000 0 0 0 0 3 5 0 0 0 FFTFFFFFFFFFFF
FF9 1 79 16 270 BODY_RECIPE_200180 1 266 271 272 9000 1 1 1 1 1 1 1 1 0 FFTFFFFF
FFFFFFFF1 82 1 267 2196 79 10 272 BODY_MATCH80 2 264 273 274 9000 0 0 0 0 3 5 0
 0 0 FFTFFFFFFFFFFFFF9 1 82 1 265 1 79 24 274 BODY_IN_LIGHTWEIGHT_PERM80 2 262 2
75 276 9000 0 0 0 0 3 5 0 0 0 FFTFTTTFFTFFFFFF3 3 84 255 12 263 Cut-Extrude279 2
1 276 SWIMPLICITBODYNAME_ID80 2 260 277 278 9000 0 0 0 0 3 5 0 0 0 FFTFFFFFFFFFF
FFF9 1 82 1 261 85 79 30 278 LAST_BODY_MODIFYING_FEATURE_ID80 2 258 279 280 9000
 0 0 0 0 3 5 0 0 0 FFTFFFFFFFFFFTFF9 1 82 1 259 120 79 19 280 ENT_TIME_STAMP_200
180 2 10 281 282 9000 0 0 0 0 3 5 0 0 0 FFTFFFFFFFFFFFFF9 1 82 1 12 106 79 12 28
2 ATOM_ID_20011 0 
