**ABCDEFGHIJKLMNOPQRSTUVWXYZabcdefghijklmnopqrstuvwxyz**************************
**PARASOLID !"#$%&'()*+,-./:;<=>?@[\]^_`{|}~0123456789**************************
**PART1;
MC=AMD64;
MC_MODEL=Intel64 Family 6 Model 126 Stepping 5, GenuineIntel;
MC_ID=unknown;
OS=Windows_NT;
OS_RELEASE=unknown;
FRU=Parasolid Version 34.1, build 225,  5-24-2022;
APPL=SOLIDWORKS 2023-2022300;
SITE=;
USER=unknown;
FORMAT=text;
GUISE=transmit;
KEY=motor2;
FILE=motor2.x_t;
DATE=Wed Jan 22 10:12:40 2025;
**PART2;
SCH=SCH_3401225_34101;
USFLD_SIZE=0;
**PART3;
**END_OF_HEADER*****************************************************************
T51 : TRANSMIT FILE created by modeller version 340122523 SCH_3401225_34101_1300
6231 0 12 36 CCCI7 lattice222 0 CCCI4 mesh1006 0 I8 polyline1008 0 CCCCCCCDI5 ow
ner1040 0 CCCI16 boundary_lattice222 0 CCCI13 boundary_mesh1006 0 I17 boundary_p
olyline1008 0 CCCA16 index_map_offset0 0 1 dA9 index_map82 0 A17 node_id_index_m
ap82 0 A20 schema_embedding_map82 0 A5 child12 0 A14 lowest_node_id0 0 1 dA16 me
sh_offset_data206 0 Z1 874 2 3 0 0 0 0 0 0 0 1e3 1e-8 0 4 0 1 0 1 1 5 0 6 7 8 0
 0 9 10 11 0 0 0 0 0 0 0 81 255 2 2 828 12 1 13 0 0 0 0 14 70 11 CI9 list_type0
 0 1 uI10 notransmit0 0 1 lCCCDCCDI12 finger_index0 0 1 dI12 finger_block1012 0
 CZ3 0 4 T1 0 0 10 20 1 15 15 13 255 5 99 0 1 0 16 0 0 17 0 54 255 6 657 0 18 19
 0 20 +0 0 -5e-4 0 0 -1 .00269234070505076 5e-4 -1 0 0 38 12 CCCCCCCCCCCA17 inte
rsection_data204 0 Z7 659 0 21 22 0 0 -6 19 23 24 25 26 29 255 8 621 0 11 27 0 -
.00275858546553363 .00160662547174834 -5e-4 19 9 CCCCCCI5 frame230 0 CA5 owner12
 0 Z9 33 0 1 17 0 28 0 V0 16 255 10 628 0 ?29 0 30 31 0 0 1 18 255 11 619 0 32 0
 33 8 ?1 17 255 32 0 34 35 36 11 37 21 0 38 +18 33 616 0 29 11 39 27 ?1 17 29 0
 40 41 42 33 38 10 0 43 +18 39 606 0 44 33 45 46 ?1 29 27 618 0 33 46 8 .0027585
8546553363 .00160662547174834 -5e-4 29 46 608 0 39 47 27 -.00245439983241341 .00
110662547174834 -.001 29 47 605 0 45 48 46 .00245439983241341 .00110662547174834
 -.001 18 45 603 0 49 39 50 47 ?1 29 48 525 0 50 51 47 -.00275858546553363 .0016
0662547174834 0 18 50 523 0 52 45 53 48 ?1 29 51 425 0 53 54 48 -.00661437827766
148 .0075 .003 18 53 423 0 55 50 56 51 ?1 29 54 416 0 56 57 51 .0066143782776614
8 .0075 .003 18 56 414 0 58 53 59 54 ?1 29 57 406 0 59 60 54 .0053619026473818 -
.0045 0 18 59 404 0 61 56 62 57 ?1 29 60 402 0 62 63 57 .0053619026473818 .0045
 0 18 62 400 0 64 59 65 60 ?1 29 63 398 0 65 66 60 -.0053619026473818 .0045 0 18
 65 396 0 67 62 68 63 ?1 29 66 395 0 68 69 63 -.0053619026473818 -.0045 0 18 68
 393 0 70 65 71 66 ?1 29 69 386 0 71 72 66 -.00661437827766148 -.0075 .003 18 71
 384 0 73 68 74 69 ?1 29 72 383 0 74 75 69 .00661437827766147 -.0075 .003 18 74
 381 0 76 71 77 72 ?1 29 75 284 0 77 78 72 -.00661437827766148 .0075 .022 18 77
 282 0 79 74 80 75 ?1 29 78 275 0 80 81 75 .00661437827766148 .0075 .022 18 80 2
73 0 82 77 83 78 ?1 29 81 266 0 83 84 78 -.00661437827766148 -.0075 .022 18 83 2
64 0 85 80 86 81 ?1 29 84 263 0 86 87 81 .00661437827766147 -.0075 .022 18 86 26
1 0 88 83 89 84 ?1 29 87 253 0 89 90 84 .00622494979899436 -.0065 .023 18 89 251
 0 91 86 92 87 ?1 29 90 249 0 92 93 87 .00622494979899436 .0065 .023 18 92 247 0
 94 89 95 90 ?1 29 93 245 0 95 96 90 -.00622494979899436 -.0065 .023 18 95 243 0
 97 92 98 93 ?1 29 96 242 0 98 99 93 -.00622494979899436 .0065 .023 18 98 240 0
 100 95 101 96 ?1 29 99 581 0 101 0 96 .00275858546553363 .00160662547174834 0 1
8 101 551 0 41 98 0 99 ?1 17 41 0 40 102 29 101 43 103 0 104 +15 255 40 558 0 42
 105 0 17 102 0 40 42 41 50 104 106 0 0 +17 43 0 107 108 109 33 41 103 0 35 -16
 103 617 0 ?41 110 111 112 0 0 1 17 104 0 113 114 114 101 102 106 0 109 -15 113
 531 0 104 16 0 17 114 0 113 104 104 50 109 111 0 102 -16 106 537 0 ?102 111 21
 115 0 0 1 17 109 0 107 43 52 101 114 111 0 0 +15 107 562 0 43 116 0 17 52 0 107
 109 108 50 42 110 0 114 +16 111 541 0 ?109 103 106 117 0 0 1 30 255 117 577 0 1
11 115 112 0 +.00275858546553363 .00160662547174834 0 1 0 0 31 255 115 578 0 106
 0 117 0 +0 0 0 0 0 -1 -1 0 0 .00319234070505076 30 112 576 0 103 117 118 0 +.00
275858546553363 .00160662547174834 -.001 0 0 1 30 118 575 0 110 112 119 0 +-.002
75858546553363 .00160662547174834 -.001 0 0 1 16 110 620 0 ?52 120 103 118 0 0 1
 31 119 220 0 121 118 122 0 +0 0 .0315 0 0 1 1 0 0 5e-4 16 121 200 0 ?123 124 12
5 119 0 0 1 31 122 219 0 126 119 127 0 +0 0 .0245 0 0 1 1 0 0 5e-4 16 126 190 0
 ?128 129 130 122 0 0 1 31 127 174 0 124 122 131 0 +0 0 .0245 0 0 1 1 0 0 .0025
 16 124 154 0 ?132 133 121 127 0 0 1 31 131 173 0 130 127 134 0 +0 0 .023 0 0 1
 1 0 0 .0025 16 130 144 0 ?135 126 136 131 0 0 1 30 134 95 0 133 131 137 0 +-.00
661437827766148 .0075 .023 0 0 -1 16 133 283 0 ?138 139 124 134 0 0 1 30 137 96
 0 139 134 140 0 +.00661437827766148 .0075 .023 0 0 -1 16 139 274 0 ?141 142 133
 137 0 0 1 30 140 97 0 142 137 143 0 +.00661437827766147 -.0075 .023 0 0 -1 16 1
42 262 0 ?144 136 139 140 0 0 1 30 143 98 0 136 140 145 0 +-.00661437827766148 -
.0075 .023 0 0 -1 16 136 265 0 ?146 130 142 143 0 0 1 31 145 246 0 129 143 147 0
 +0 0 .023 0 0 1 1 0 0 .009 16 129 244 0 ?97 148 126 145 0 0 1 30 147 250 0 148
 145 149 0 +-.00661437827766148 .0065 .023 -1 0 0 16 148 248 0 ?100 150 129 147
 0 0 1 31 149 254 0 150 147 151 0 +0 0 .023 0 0 1 1 0 0 .009 16 150 252 0 ?94 15
2 148 149 0 0 1 30 151 257 0 152 149 153 0 +.00661437827766147 -.0065 .023 1 0 0
 16 152 255 0 ?154 155 150 151 0 0 1 30 153 269 0 155 151 156 0 --.0066143782776
6148 -.0075 .022 1 0 0 16 155 267 0 ?157 158 152 153 0 0 1 31 156 278 0 158 153
 159 0 -0 0 .022 0 0 1 1 0 0 .01 16 158 276 0 ?88 160 155 156 0 0 1 30 159 287 0
 160 156 161 0 -.00661437827766148 .0075 .022 -1 0 0 16 160 285 0 ?82 162 158 15
9 0 0 1 31 161 293 0 162 159 163 0 -0 0 .022 0 0 1 1 0 0 .01 16 162 291 0 ?79 16
4 160 161 0 0 1 38 163 343 0 165 161 166 0 +167 168 169 170 171 172 16 165 327 0
 ?91 173 174 163 0 0 1 38 166 342 0 173 163 175 0 -176 167 177 178 179 180 51 25
5 167 339 0 181 182 168 183 +0 -.0065 .022 -1 0 0 .001 0 0 1 54 168 338 0 184 16
7 176 185 +0 0 .022 0 0 1 .009 .001 1 0 0 40 255 6 169 0 1 6 552871969420159e-19
 .340944163295616 ??.00661437827766147 -.0075 .022 .00659512297004626 -.00744912
939800638 .02231488630621235 .00654003670437674 -.00730441601891899 .02259406638
39223 .00645325410676356 -.00707889771329217 .0228154001701895 .0063378780112831
4 -.00678373953718126 .02295890138963305 .00622778335609152 -.00650705710607945
 .0229999750983169 41 3 CI8 term_use0 0 1 cCZ1 170 L?.00661437827766147 -.0075 .
022 41 2 171 TF.00622494979899436 -.0065 .023 .00622778335609152 -.0065070571060
7945 .0229999750983169 204 2 17 INTERSECTION_DATA17 Intersection data7 uv_type0
 0 1 u6 values0 1 1 fT28 172 4 4.71238898038469 -.00661437827766147 5.4351232281
9811 0 5.03272584460645 -.00659512297004626 5.43705367567036 .320336864221758 5.
3484935175211 -.00654003670437674 5.44263118737228 .636104537136409 5.6658091015
1859 -.00645325410676356 5.45158618475583 .953420121133904 5.99549362150642 -.00
633787801128314 5.46382105322361 1.283104641121734 6.27612814252162 -.0062277833
5609152 5.47586076046792 1.56373916213619 867361737988403e-30 -.0062249497989943
6 5.47617547678252 1.5707963267949 14 255 184 310 186 ?181 187 188 5 168 +0 0 18
1 187 28 54 176 337 0 187 168 189 190 +0 0 .022 0 0 1 .009 .001 1 0 0 141 255 18
5 163 191 191 168 141 191 175 185 185 168 38 175 341 0 192 166 193 0 +168 189 19
4 195 196 197 16 192 322 0 ?198 125 173 175 0 0 1 38 193 340 0 125 175 199 0 -18
9 176 200 201 202 203 51 189 336 0 204 176 205 206 +0 .0065 .022 1 0 0 .001 0 0
 -1 40 6 194 0 1 6 552871969420159e-19 .3409441632956165 ??.00661437827766148 .0
075 .022 .00659512297004626 .00744912939800638 .02231488630621235 .0065400367043
7674 .00730441601891899 .0225940663839223 .00645325410676356 .00707889771329217
 .0228154001701895 .00633787801128314 .00678373953718126 .02295890138963305 .006
22778335609154 .00650705710607944 .0229999750983169 41 1 195 L?.0066143782776614
8 .0075 .022 41 2 196 TF.00622494979899436 .0065 .023 .00622778335609154 .006507
05710607944 .0229999750983169 204 28 197 4 .848062078981481 0 1.570796326794895
 .00661437827766148 .846131631509227 .320336864221758 1.891133191016655 .0065951
2297004626 .840554119807309 .636104537136409 2.206900863931305 .0065400367043767
4 .831599122423758 .953420121133904 2.5242164479288 .00645325410676356 .81936425
3955976 1.283104641121734 2.85390096791663 .00633787801128314 .807324546711663 1
.563739162136175 3.13453548893183 .00622778335609154 .807009830397065 1.57079632
6794895 3.141592653589795 .00622494979899436 14 204 306 207 ?187 208 209 5 189 +
0 0 187 208 28 54 205 482 0 210 189 211 212 +0 0 .003 0 0 1 .007 .003 1 0 0 141
 206 175 213 213 189 141 213 193 206 206 189 14 210 453 214 ?215 216 217 5 205 +
0 0 215 216 28 51 211 481 0 215 205 218 219 +.00661437827766148 -.0045 .003 1 0
 0 .003 0 0 -1 141 212 220 221 221 205 38 220 486 0 120 222 223 0 -205 211 224 2
25 226 227 141 221 228 212 212 205 38 228 484 0 229 223 230 0 -231 205 232 233 2
34 235 16 229 465 0 ?236 174 237 228 0 0 1 38 223 485 0 237 220 228 0 +211 218 2
38 239 240 241 38 230 483 0 174 228 242 0 +218 231 243 244 245 246 51 231 479 0
 247 218 19 248 +-.00661437827766148 .0045 .003 -1 0 0 .003 0 0 1 40 6 232 0 1 6
 .0001641007577493415 .340662105313649 ??.00661437827766148 .0075 .003 .00655661
856106619 .00734784939106353 .002056732357271245 .00638950293474509 .00691514955
062324 .00122037850987229 .00612129168459949 .00624404237758936 .000559033759927
753 .00575406695546906 .00537185730560421 .0001294835240562422 .0053671896597121
2 .00451134496866388 2145146235751505e-23 41 1 233 L?.00661437827766148 .0075 .0
03 41 2 234 TF.0053619026473818 .0045 -857197342621352e-33 .00536718965971212 .0
0451134496866388 2145146235751505e-23 204 28 235 4 1.570796326794895 -.013228756
55532294 .848062078981481 0 1.890644615830885 -.01317099683872766 .8422416503599
88 -.319848289035986 2.205833155095405 -.01300388121240656 .824886107547671 -.63
5036828300507 2.52120888442705 -.01273566996226096 .795324839089377 -.9504125576
32154 2.846718850987795 -.01236844523313054 .751058598029007 -1.275922524192898
 3.13781098835491 -.0119815679373736 .698977149548254 -1.567014661559985 3.14159
2653589795 -.01197628092504328 .69822247336256 -1.570796326794895 14 247 449 249
 ?216 181 250 5 231 +0 0 216 181 28 54 218 480 0 216 211 231 251 +0 0 .003 0 0 1
 .007 .003 1 0 0 51 19 658 0 252 231 6 253 +0 .00110662547174834 -5e-4 -1 0 0 5e
-4 0 0 1 141 248 228 254 254 231 141 254 230 248 248 231 14 252 643 255 ?0 18 34
 5 19 +0 0 0 18 28 141 253 22 256 256 19 38 22 660 0 257 31 7 0 +19 6 258 259 26
0 261 141 256 7 253 253 19 16 257 652 0 ?49 21 0 22 0 0 1 31 31 630 0 10 262 22
 0 -0 0 -5e-4 0 0 -1 -1 0 0 .00319234070505076 40 6 258 0 1 6 3219135639503405e-
20 .345839365809701 ??.00275858546553363 .00160662547174834 -5e-4 .0027455090312
4391 .001583931002874 -.000648927599714944 .00270855126234107 .00152037296430591
5 -.000780736553377578 .00264966382080607 .0014208810849274 -.000888900256602454
 .002566532186092135 .001284150702342036 -.000967423568621283 .00245694069614706
 .001110560304046902 -.000999984516855054 41 1 259 L?.00275858546553363 .0016066
2547174834 -5e-4 41 2 260 TF.00245439983241341 .00110662547174834 -.001 .0024569
4069614706 .001110560304046902 -.000999984516855054 204 28 261 4 1.5707963267948
95 -.00275858546553363 2.614208013598735 0 1.87324141132464 -.00274550903124391
 2.61831884463846 .302445084529743 2.16696125409561 -.00270855126234107 2.630097
50686021 .596164927300714 2.461955007334195 -.00264966382080607 2.6493676505635
 .891158680539298 2.77862460886294 -.002566532186092135 2.677669345780925 1.2078
28282068042 3.133722907760225 -.00245694069614706 2.71706896110934 1.56292658096
533 3.141592653589795 -.00245439983241341 2.71801201008181 1.5707963267949 30 26
2 624 0 30 263 31 0 --.00275858546553363 .00160662547174834 -5e-4 1 0 0 16 30 62
2 0 ?108 10 264 262 0 0 1 30 263 612 0 264 242 262 0 +.00275858546553363 .001106
62547174834 -.001 1 0 0 16 264 610 0 ?265 30 266 263 0 0 1 31 242 609 0 266 230
 263 0 +0 0 -.001 0 0 -1 -1 0 0 .00269234070505076 16 266 607 0 ?44 264 267 242
 0 0 1 17 44 0 268 265 265 39 269 266 0 37 +16 267 432 0 ?73 266 270 222 0 0 1 1
7 73 0 271 272 138 71 273 267 0 146 +16 270 426 0 ?55 267 274 275 0 0 1 31 222 4
34 0 267 275 220 0 +0 0 .003 0 0 1 1 0 0 .01 30 275 428 0 270 276 222 0 +-.00661
437827766148 .0075 .003 -1 0 0 31 276 419 0 274 277 275 0 +0 0 .003 0 0 1 1 0 0
 .01 16 274 417 0 ?58 270 278 276 0 0 1 30 277 410 0 278 279 276 0 -0 -.0045 0 1
 0 0 16 278 408 0 ?280 274 281 277 0 0 1 31 279 407 0 281 282 277 0 -0 0 0 0 0 1
 1 0 0 .007 16 281 405 0 ?61 278 283 279 0 0 1 30 282 403 0 283 284 279 0 -0 .00
45 0 -1 0 0 16 283 401 0 ?64 281 285 282 0 0 1 31 284 399 0 285 199 282 0 -0 0 0
 0 0 1 1 0 0 .007 16 285 397 0 ?67 283 164 284 0 0 1 30 199 389 0 164 193 284 0
 +.00661437827766148 -.0075 .003 1 0 0 16 164 387 0 ?286 285 162 199 0 0 1 17 28
6 0 287 288 146 74 289 164 0 144 +15 287 87 0 146 290 0 17 288 0 287 157 286 86
 144 142 0 291 -17 146 0 287 286 157 71 272 136 0 292 +17 289 0 293 70 76 71 286
 164 0 0 -17 144 0 294 58 88 74 288 142 0 0 +15 294 85 0 144 295 0 17 58 0 294 2
96 144 56 297 274 0 141 +17 88 0 294 144 296 86 298 158 0 288 +17 296 0 294 88 5
8 80 141 139 0 299 -17 298 0 188 198 300 80 88 158 0 0 -15 188 311 0 198 184 0 1
7 198 0 188 301 298 92 299 192 0 0 +17 300 0 188 298 301 86 91 165 0 0 -17 301 0
 188 300 198 89 94 150 0 154 -17 91 0 302 303 291 89 300 165 0 301 +15 302 313 0
 85 181 0 17 303 0 302 85 91 95 154 152 0 0 -17 291 0 302 91 85 86 157 155 0 300
 -17 85 0 302 291 303 83 304 173 0 305 +17 157 0 287 146 288 83 291 155 0 272 +1
7 272 0 271 79 73 83 146 136 0 0 -15 271 89 0 138 306 0 17 79 0 271 138 272 77 3
05 162 0 307 +17 138 0 271 73 79 53 307 133 0 308 +17 305 0 309 304 310 83 79 16
2 0 157 -17 307 0 311 82 55 77 138 133 0 312 -15 311 83 0 141 313 0 17 82 0 311
 141 307 80 312 160 0 296 +17 55 0 311 307 141 53 314 270 0 138 +17 312 0 209 31
5 299 77 82 160 0 310 -15 209 307 0 299 204 0 17 315 0 209 316 312 98 310 125 0
 317 -17 299 0 209 312 316 80 198 192 0 298 -17 310 0 309 305 317 77 315 125 0 0
 +15 309 309 0 310 187 0 17 317 0 309 310 304 98 97 129 0 0 -16 125 319 0 ?310 1
21 192 193 0 0 1 17 304 0 309 317 305 95 85 173 0 303 -17 97 0 318 154 100 95 31
7 129 0 304 +15 318 241 0 97 319 320 17 154 0 318 94 97 89 303 152 0 0 +17 100 0
 318 97 94 98 316 148 0 315 +17 94 0 318 100 154 92 301 150 0 316 +17 316 0 209
 299 315 92 100 148 0 198 -14 319 1 321 ?322 313 318 5 323 +0 0 322 313 28 15 32
0 146 0 324 319 0 17 324 0 320 324 324 0 135 130 0 0 -17 135 0 325 135 135 0 324
 130 0 0 +15 325 161 0 135 322 0 14 322 157 326 ?327 319 328 5 329 -0 0 327 319
 28 81 1 326 842 330 322 331 0 321 332 333 14 327 162 332 ?334 322 335 5 336 +0
 0 334 322 28 15 328 160 0 337 322 325 51 329 170 0 322 336 323 0 -0 0 .0245 0 0
 -1 .0025 -1 0 0 13 28 34 0 0 0 0 0 0 9 16 14 16 533 338 ?306 0 339 5 340 -0 0 3
06 0 28 81 1 338 846 330 16 341 0 332 342 343 14 306 90 342 ?290 16 271 5 182 -0
 0 290 16 28 15 339 394 0 61 16 113 50 255 340 70 0 16 323 344 0 +0 0 0 0 0 1 1
 0 0 50 323 3 0 319 329 340 0 +0 0 .023 0 0 1 1 0 0 50 344 91 0 313 340 345 0 +-
.00661437827766148 .0075 .023 0 -1 0 0 0 -1 14 313 84 346 ?319 295 311 5 344 -0
 0 319 295 28 51 345 92 0 295 344 347 0 -0 0 .023 0 0 -1 .01 -1 0 0 14 295 86 34
8 ?313 290 294 5 345 -0 0 313 290 28 50 347 93 0 290 345 182 0 +.006614378277661
48 -.0075 .023 0 1 0 0 0 1 14 290 88 349 ?295 306 287 5 347 -0 0 295 306 28 51 1
82 94 0 306 347 167 0 -0 0 .023 0 0 -1 .01 -1 0 0 81 1 349 854 330 290 350 0 348
 351 352 80 7 CCCCCDI12 legal_owners0 16 1 lCZ1 330 353 354 9000 1 1 1 1 1 1 1 1
 0 FFFFTFTFFFFFFFFF1 81 3 350 853 355 290 356 349 357 358 359 0 0 81 1 348 852 3
30 295 357 0 346 349 360 81 1 351 856 330 187 358 0 349 361 362 82 255 1 352 -39
4788728 14 187 308 351 ?184 204 309 5 176 +0 0 184 204 28 81 3 358 855 355 187 3
63 351 350 364 365 0 0 81 1 361 858 330 181 364 0 351 366 367 82 1 362 164652658
1 14 181 312 361 ?247 184 302 5 167 +0 0 247 184 28 81 3 364 857 355 181 368 361
 358 369 370 0 0 81 1 366 860 330 334 369 0 361 371 372 82 1 367 1643577461 14 3
34 203 366 ?208 327 373 5 374 -0 0 208 327 28 81 3 369 859 355 334 375 366 364 3
76 377 0 0 81 1 371 862 330 208 376 0 366 378 379 82 1 372 971833456 14 208 208
 371 ?204 334 380 5 381 +0 0 204 334 28 81 3 376 861 355 208 382 371 369 383 384
 0 0 81 1 378 864 330 216 383 0 371 385 386 82 1 379 969867376 14 216 451 378 ?2
10 247 387 5 218 +0 0 210 247 28 81 3 383 863 355 216 388 378 376 389 390 0 0 81
 1 385 866 330 215 389 0 378 391 392 82 1 386 1245380744 14 215 455 385 ?105 210
 293 5 211 +0 0 105 210 28 81 3 389 865 355 215 393 385 383 394 395 0 0 81 1 391
 868 330 105 394 0 385 396 397 82 1 392 1242431624 14 105 555 391 ?116 215 40 5
 398 -0 0 116 215 28 81 3 394 867 355 105 399 391 389 400 401 0 0 81 1 396 870 3
30 116 400 0 391 402 403 82 1 397 1270612108 14 116 559 396 ?404 105 107 5 405 -
0 0 404 105 28 81 3 400 869 355 116 406 396 394 407 408 0 0 81 1 402 872 330 404
 407 0 396 409 410 82 1 403 1270349964 14 404 563 402 ?18 116 268 5 411 +0 0 18
 116 28 81 3 407 871 355 404 412 402 400 413 414 0 0 81 1 409 874 330 18 413 0 4
02 0 415 82 1 410 1266548876 14 18 641 409 ?252 404 416 5 6 +0 0 252 404 28 81 3
 413 873 355 18 417 409 407 0 418 0 0 82 1 415 1283719308 80 3 355 419 420 9000
 0 0 0 0 3 5 0 0 0 FFFFTFFFFFFFFFFF1 1 1 81 1 417 756 421 18 0 413 412 422 423 8
2 6 418 0 -693230920 31156002 0 0 0 80 1 421 0 424 8001 0 0 0 0 3 5 0 0 0 FFFFTF
TFFFFFFFFF2 81 1 412 755 421 404 0 407 406 417 425 81 1 422 757 421 252 0 426 41
7 0 427 83 255 3 423 .776470588235294 .756862745098039 .737254901960784 81 3 426
 837 355 252 422 255 428 429 430 0 0 83 3 427 .776470588235294 .756862745098039
 .737254901960784 81 1 255 838 330 252 426 0 249 321 431 81 3 428 835 355 247 43
2 249 433 426 434 0 0 81 3 429 839 355 319 435 321 426 331 436 0 0 82 6 430 0 -6
93230920 31156002 0 0 0 81 1 435 740 421 319 0 429 437 438 439 81 1 321 840 330
 319 429 0 255 326 440 81 3 331 841 355 322 438 326 429 441 442 0 0 82 6 436 0 -
1618513822 31156002 0 0 0 81 1 438 741 421 322 0 331 435 443 444 81 3 441 843 35
5 327 443 332 331 341 445 0 0 82 6 442 0 -2036896654 31156002 0 0 0 81 1 443 742
 421 327 0 441 438 375 446 81 1 332 844 330 327 441 0 326 338 447 81 3 341 845 3
55 16 448 338 441 449 450 0 0 82 6 445 0 -1848378604 31156002 0 0 0 81 1 448 735
 421 16 0 341 0 451 452 81 3 449 847 355 306 451 342 341 453 454 0 0 82 6 450 0
 -693282645 31156002 0 0 0 81 1 451 736 421 306 0 449 448 356 455 81 1 342 848 3
30 306 449 0 338 346 456 81 3 453 849 355 313 437 346 449 357 457 0 0 82 6 454 0
 -693422856 31156002 0 0 0 81 1 437 739 421 313 0 453 458 435 459 81 1 346 850 3
30 313 453 0 342 348 460 81 3 357 851 355 295 458 348 453 350 461 0 0 82 6 457 0
 -693422856 31156002 0 0 0 81 1 458 738 421 295 0 357 356 437 462 82 6 461 0 -69
3422856 31156002 0 0 0 81 1 356 737 421 290 0 350 451 458 463 83 3 462 .77647058
8235294 .756862745098039 .737254901960784 83 3 463 .776470588235294 .75686274509
8039 .737254901960784 82 1 460 -395313016 83 3 459 .776470588235294 .75686274509
8039 .737254901960784 82 1 456 -394526584 83 3 455 .776470588235294 .75686274509
8039 .737254901960784 83 3 452 .901960784313726 .92156862745098 .92156862745098
 82 1 447 353173616 81 1 375 743 421 334 0 369 443 382 464 83 3 446 .77647058823
5294 .756862745098039 .737254901960784 81 1 382 744 421 208 0 376 375 465 466 83
 3 464 .776470588235294 .756862745098039 .737254901960784 81 1 465 745 421 204 0
 467 382 363 468 83 3 466 .776470588235294 .756862745098039 .737254901960784 81
 3 467 831 355 204 465 207 469 433 470 0 0 81 1 363 746 421 187 0 358 465 471 47
2 83 3 468 .776470588235294 .756862745098039 .737254901960784 81 1 471 747 421 1
84 0 469 363 368 473 83 3 472 .776470588235294 .756862745098039 .737254901960784
 81 3 469 829 355 184 471 186 0 467 474 0 0 81 1 368 748 421 181 0 364 471 432 4
75 83 3 473 .776470588235294 .756862745098039 .737254901960784 81 1 432 749 421
 247 0 428 368 388 476 83 3 475 .776470588235294 .756862745098039 .7372549019607
84 81 1 388 750 421 216 0 383 432 477 478 83 3 476 .901960784313726 .92156862745
098 .92156862745098 81 1 477 751 421 210 0 433 388 393 479 83 3 478 .90196078431
3726 .92156862745098 .92156862745098 81 3 433 833 355 210 477 214 467 428 480 0
 0 81 1 393 752 421 215 0 389 477 399 481 83 3 479 .901960784313726 .92156862745
098 .92156862745098 81 1 399 753 421 105 0 394 393 406 482 83 3 481 .90196078431
3726 .92156862745098 .92156862745098 81 1 406 754 421 116 0 400 399 412 483 83 3
 482 .776470588235294 .756862745098039 .737254901960784 83 3 483 .77647058823529
4 .756862745098039 .737254901960784 81 1 214 834 330 210 433 0 207 249 484 82 6
 480 0 -693422856 31156002 0 0 0 81 1 207 832 330 204 467 0 186 214 485 81 1 249
 836 330 247 428 0 214 255 486 82 1 484 1244201096 82 1 486 1246429320 81 1 186
 830 330 184 469 0 0 207 487 82 1 485 1647575157 82 1 487 1645346933 82 6 474 0
 -1618513822 31156002 0 0 0 82 6 470 0 -1618513822 31156002 0 0 0 83 3 444 .7764
70588235294 .756862745098039 .737254901960784 82 1 440 -401866635 83 3 439 .7764
70588235294 .756862745098039 .737254901960784 82 6 434 0 -693422856 31156002 0 0
 0 82 1 431 1282015372 83 3 425 .776470588235294 .756862745098039 .7372549019607
84 79 255 15 424 SDL/TYSA_COLOUR79 18 420 DOWNSTREAM_FACE_ID15 416 642 0 488 18
 0 17 488 0 416 38 269 33 49 257 0 0 -17 38 0 416 37 488 11 29 10 0 108 -17 269
 0 416 488 37 45 44 266 0 265 -17 49 0 34 36 35 45 488 257 0 269 +15 34 644 0 32
 252 0 17 36 0 34 32 49 39 265 264 0 0 -17 35 0 34 49 32 33 108 30 0 488 -17 108
 0 107 52 43 11 35 30 0 42 +17 42 0 40 29 102 11 52 110 0 0 -17 265 0 268 44 44
 45 36 264 0 0 +15 268 604 0 44 404 0 17 37 0 416 269 38 39 32 21 0 36 -16 21 65
0 0 ?32 106 257 7 0 0 1 82 6 414 0 -693230920 31156002 0 0 0 50 411 574 0 404 0
 405 0 +0 0 -.001 0 0 -1 -1 0 0 50 405 572 0 116 411 398 0 +.00275858546553363 .
00160662547174834 -.001 0 -1 0 0 0 -1 51 398 571 0 105 405 381 0 -0 0 -.001 0 0
 1 .00319234070505076 1 0 0 50 381 218 0 208 398 374 0 +0 0 .0315 0 0 1 1 0 0 51
 374 216 0 334 381 336 0 -0 0 .0315 0 0 -1 5e-4 -1 0 0 50 336 172 0 327 374 329
 0 +0 0 .0245 0 0 1 1 0 0 82 6 408 0 -693230920 31156002 0 0 0 82 6 401 0 -69323
0920 31156002 0 0 0 82 6 395 0 -693422856 31156002 0 0 0 15 293 456 0 70 215 0 1
7 70 0 293 489 289 68 292 237 0 490 +17 489 0 293 76 70 59 280 278 0 491 -17 292
 0 387 273 490 71 70 237 0 289 -16 237 468 0 ?70 229 120 223 0 0 1 17 490 0 387
 292 492 68 67 285 0 280 -15 387 452 0 492 216 0 17 492 0 387 490 273 65 308 174
 0 0 +17 67 0 339 64 280 65 490 285 0 493 +17 280 0 339 67 61 68 489 278 0 0 +17
 61 0 339 280 64 59 494 281 0 489 +17 64 0 339 61 67 62 493 283 0 495 +17 494 0
 217 236 491 62 61 281 0 0 -15 217 454 0 236 210 0 17 236 0 217 297 494 56 495 2
29 0 0 +17 491 0 217 494 297 59 76 120 0 0 -17 297 0 217 491 236 74 58 274 0 286
 -17 76 0 293 289 489 74 491 120 0 297 +16 120 470 0 ?76 237 110 220 0 0 1 17 49
5 0 250 493 314 62 236 229 0 494 -15 250 450 0 495 247 0 17 493 0 250 308 495 65
 64 283 0 492 -17 314 0 250 495 308 56 55 270 0 236 -17 308 0 250 314 493 53 492
 174 0 273 -16 174 462 0 ?492 165 229 230 0 0 1 17 273 0 387 492 292 53 73 267 0
 0 -82 6 390 0 -693422856 31156002 0 0 0 82 6 384 0 -1848378604 31156002 0 0 0 1
5 380 210 0 123 208 0 17 123 0 380 123 123 0 496 121 0 0 +17 496 0 373 496 496 0
 123 121 0 0 -15 373 206 0 496 334 497 15 497 207 0 128 334 0 17 128 0 497 128 1
28 0 498 126 0 0 +17 498 0 335 498 498 0 128 126 0 0 -15 335 192 0 498 327 499 1
5 499 164 0 132 327 0 17 132 0 499 132 132 0 337 124 0 0 +17 337 0 328 337 337 0
 132 124 0 0 -82 6 377 0 -1848378604 31156002 0 0 0 82 6 370 0 -1618513822 31156
002 0 0 0 82 6 365 0 -1618513822 31156002 0 0 0 82 1 360 -395050872 82 6 359 0 -
693422856 31156002 0 0 0 79 14 354 SWEntUnchanged82 1 343 1278083211 82 1 333 35
5139692 16 173 325 0 ?85 192 165 166 0 0 1 17 141 0 311 55 82 56 296 139 0 314 +
141 251 223 500 500 218 141 500 230 251 251 218 40 6 243 0 1 6 .0001641007577493
415 .340662105313649 ??-.00661437827766148 .0075 .003 -.00655661856106619 .00734
784939106353 .002056732357271245 -.00638950293474509 .00691514955062324 .0012203
7850987229 -.00612129168459949 .00624404237758936 .000559033759927753 -.00575406
695546906 .00537185730560421 .0001294835240562422 -.00536718965971212 .004511344
96866388 2145146235751505e-23 41 1 244 L?-.00661437827766148 .0075 .003 41 2 245
 TF-.0053619026473818 .0045 -857197342621352e-33 -.00536718965971212 .0045113449
6866388 2145146235751505e-23 204 28 246 4 2.29353057460831 0 1.570796326794895 0
 2.299351003229805 -.319848289035986 1.890644615830885 -577597165952858e-19 2.31
6706546042125 -.635036828300507 2.205833155095405 -.0002248753429163815 2.346267
814500415 -.950412557632154 2.52120888442705 -.00049308659306199 2.3905340555607
85 -1.275922524192898 2.846718850987795 -.000860311322192411 2.44261550404154 -1
.567014661559985 3.13781098835491 -.001247188617949352 2.443370180227235 -1.5707
96326794895 3.141592653589795 -.001252475630279672 40 6 238 0 1 6 .0001641007577
493415 .340662105313649 ??-.00661437827766148 -.0075 .003 -.00655661856106619 -.
00734784939106353 .002056732357271245 -.00638950293474509 -.00691514955062324 .0
0122037850987229 -.00612129168459949 -.00624404237758936 .000559033759927753 -.0
0575406695546906 -.00537185730560421 .0001294835240562422 -.00536718965971212 -.
00451134496866388 2145146235751505e-23 41 1 239 L?-.00661437827766148 -.0075 .00
3 41 2 240 TF-.0053619026473818 -.0045 -857197342621352e-33 -.00536718965971212
 -.00451134496866388 2145146235751505e-23 204 28 241 4 4.71238898038469 -.013228
75655532294 3.989654732571275 0 5.03223726942068 -.01317099683872766 3.983834303
94978 -.319848289035986 5.3474258086852 -.01300388121240656 3.966478761137465 -.
635036828300507 5.66280153801684 -.01273566996226096 3.93691749267917 -.95041255
7632154 5.98831150457759 -.01236844523313054 3.8926512516188 -1.275922524192898
 6.27940364194471 -.0119815679373736 3.840569803138045 -1.567014661559985 0 -.01
197628092504328 3.839815126952355 -1.570796326794895 40 6 224 0 1 6 .00016410075
77493415 .340662105313649 ??.00661437827766147 -.0075 .003 .00655661856106619 -.
00734784939106353 .002056732357271245 .00638950293474509 -.00691514955062324 .00
122037850987229 .00612129168459949 -.00624404237758936 .000559033759927753 .0057
5406695546906 -.00537185730560421 .000129483524056242 .00536718965971212 -.00451
134496866388 21451462357407e-21 41 1 225 L?.00661437827766147 -.0075 .003 41 2 2
26 TF.0053619026473818 -.0045 -857197342621352e-33 .00536718965971212 -.00451134
496866388 21451462357407e-21 204 28 227 4 5.43512322819811 0 4.71238898038469 -5
20417042793042e-32 5.4409436568196 -.319848289035986 5.03223726942068 -577597165
952867e-19 5.45829919963192 -.635036828300507 5.3474258086852 -.0002248753429163
82 5.48786046809021 -.950412557632154 5.66280153801684 -.00049308659306199 5.532
12670915058 -1.275922524192898 5.98831150457759 -.000860311322192411 5.584208157
63133 -1.567014661559985 6.27940364194471 -.001247188617949352 5.58496283381703
 -1.570796326794895 0 -.001252475630279672 141 219 220 501 501 211 141 501 223 2
19 219 211 40 6 200 0 1 6 552871969420159e-19 .3409441632956165 ??-.006614378277
66148 .0075 .022 -.00659512297004626 .00744912939800638 .02231488630621235 -.006
54003670437674 .00730441601891899 .0225940663839223 -.00645325410676356 .0070788
9771329217 .0228154001701895 -.00633787801128314 .00678373953718126 .02295890138
963305 -.00622778335609154 .00650705710607944 .0229999750983169 41 1 201 L?-.006
61437827766148 .0075 .022 41 2 202 TF-.00622494979899436 .0065 .023 -.0062277833
5609154 .00650705710607944 .0229999750983169 204 28 203 4 1.570796326794895 -.00
661437827766148 2.29353057460831 0 1.891133191016655 -.00659512297004626 2.29546
1022080565 .320336864221758 2.206900863931305 -.00654003670437674 2.301038533782
485 .636104537136409 2.5242164479288 -.00645325410676356 2.309993531166035 .9534
20121133904 2.85390096791663 -.00633787801128314 2.32222839963382 1.283104641121
734 3.13453548893183 -.00622778335609154 2.33426810687813 1.563739162136175 3.14
1592653589795 -.00622494979899436 2.33458282319273 1.570796326794895 141 190 166
 502 502 176 141 502 193 190 190 176 141 183 163 503 503 167 141 503 166 183 183
 167 40 6 177 0 1 6 552871969420159e-19 .3409441632956165 ??-.00661437827766148
 -.0075 .022 -.00659512297004626 -.00744912939800638 .02231488630621235 -.006540
03670437674 -.00730441601891899 .0225940663839223 -.00645325410676356 -.00707889
771329217 .0228154001701895 -.00633787801128314 -.00678373953718126 .02295890138
963305 -.00622778335609154 -.00650705710607944 .0229999750983169 41 1 178 L?-.00
661437827766148 -.0075 .022 41 2 179 TF-.00622494979899436 -.0065 .023 -.0062277
8335609154 -.00650705710607944 .0229999750983169 204 28 180 4 3.989654732571275
 0 4.71238898038469 .00661437827766148 3.98772428509902 .320336864221758 5.03272
584460645 .00659512297004626 3.9821467733971 .636104537136409 5.3484935175211 .0
0654003670437674 3.97319177601355 .953420121133904 5.66580910151859 .00645325410
676356 3.96095690754577 1.283104641121734 5.99549362150642 .00633787801128314 3.
948917200301455 1.563739162136175 6.27612814252162 .00622778335609154 3.94860248
398686 1.570796326794895 0 .00622494979899436 19 17 100 0 1 0 9 5 0 S0 40 6 23 0
 1 6 3219135639503405e-20 .345839365809701 ??-.00275858546553363 .00160662547174
834 -5e-4 -.00274550903124391 .001583931002874 -.000648927599714944 -.0027085512
6234107 .001520372964305915 -.000780736553377578 -.00264966382080607 .0014208810
849274 -.000888900256602454 -.002566532186092135 .001284150702342036 -.000967423
568621283 -.00245694069614706 .001110560304046902 -.000999984516855054 41 1 24 L
?-.00275858546553363 .00160662547174834 -5e-4 41 2 25 TF-.00245439983241341 .001
10662547174834 -.001 -.00245694069614706 .001110560304046902 -.00099998451685505
4 204 28 26 4 .527384639991059 0 1.570796326794895 .00275858546553363 .523273808
951333 .302445084529743 1.87324141132464 .00274550903124391 .511495146729585 .59
6164927300714 2.16696125409561 .00270855126234107 .492225003026293 .891158680539
298 2.461955007334195 .00264966382080607 .463923307808867 1.207828282068042 2.77
862460886294 .002566532186092135 .424523692480452 1.56292658096533 3.13372290776
0225 .00245694069614706 .4235806435079825 1.5707963267949 3.141592653589795 .002
45439983241341 141 20 22 504 504 6 141 504 7 20 20 6 74 4 CI16 index_map_offset0
 0 1 dCCZ20 15 10 0 0 413 409 505 506 507 508 509 13 422 2 0 0 0 0 0 0 0 0 0 0 8
1 2 505 586 510 1 0 506 0 0 0 511 81 2 506 594 512 1 505 507 0 0 0 513 81 2 507
 595 514 1 506 508 0 0 515 0 81 1 508 678 516 1 507 509 0 0 517 81 2 509 707 518
 1 508 13 0 0 0 519 81 2 13 733 520 1 509 2 0 0 0 0 80 2 520 521 522 9000 0 0 0
 0 3 5 0 0 0 FFTFFFFFFFFFFFFF9 1 79 16 522 BODY_RECIPE_200180 2 518 523 524 9000
 0 0 0 0 3 5 0 0 0 FFTFFFFFFFFFFFFF9 1 82 1 519 1 79 24 524 BODY_IN_LIGHTWEIGHT_
PERM80 1 516 525 526 9000 1 1 1 1 1 1 1 1 0 FFTFFFFFFFFFFFFF1 82 1 517 2942986 7
9 10 526 BODY_MATCH80 2 514 527 528 9000 0 0 0 0 3 5 0 0 0 FFTFTTTFFTFFFFFF3 3 8
4 255 7 515 Fillet379 21 528 SWIMPLICITBODYNAME_ID80 2 512 529 530 9000 0 0 0 0
 3 5 0 0 0 FFTFFFFFFFFFFFFF9 1 82 1 513 71 79 30 530 LAST_BODY_MODIFYING_FEATURE
_ID80 2 510 531 532 9000 0 0 0 0 3 5 0 0 0 FFTFFFFFFFFFFTFF9 1 82 1 511 132 79 1
9 532 ENT_TIME_STAMP_200180 2 12 533 534 9000 0 0 0 0 3 5 0 0 0 FFTFFFFFFFFFFFFF
9 1 82 1 14 104 79 12 534 ATOM_ID_20011 0 
