**ABCDEFGHIJKLMNOPQRSTUVWXYZabcdefghijklmnopqrstuvwxyz**************************
**PARASOLID !"#$%&'()*+,-./:;<=>?@[\]^_`{|}~0123456789**************************
**PART1;
MC=AMD64;
MC_MODEL=Intel64 Family 6 Model 126 Stepping 5, GenuineIntel;
MC_ID=unknown;
OS=Windows_NT;
OS_RELEASE=unknown;
FRU=Parasolid Version 34.1, build 225,  5-24-2022;
APPL=SOLIDWORKS 2023-2022300;
SITE=;
USER=unknown;
FORMAT=text;
GUISE=transmit;
KEY=tire;
FILE=tire.x_t;
DATE=Wed Jan 22 10:12:30 2025;
**PART2;
SCH=SCH_3401225_34101;
USFLD_SIZE=0;
**PART3;
**END_OF_HEADER*****************************************************************
T51 : TRANSMIT FILE created by modeller version 340122523 SCH_3401225_34101_1300
6231 0 12 36 CCCI7 lattice222 0 CCCI4 mesh1006 0 I8 polyline1008 0 CCCCCCCDI5 ow
ner1040 0 CCCI16 boundary_lattice222 0 CCCI13 boundary_mesh1006 0 I17 boundary_p
olyline1008 0 CCCA16 index_map_offset0 0 1 dA9 index_map82 0 A17 node_id_index_m
ap82 0 A20 schema_embedding_map82 0 A5 child12 0 A14 lowest_node_id0 0 1 dA16 me
sh_offset_data206 0 Z1 311 2 3 0 0 0 0 0 0 0 1e3 1e-8 0 4 0 1 0 1 1 5 0 6 7 0 0
 0 8 9 0 0 0 0 0 0 0 0 81 255 2 2 295 10 1 11 0 0 0 0 12 70 11 CI9 list_type0 0
 1 uI10 notransmit0 0 1 lCCCDCCDI12 finger_index0 0 1 dI12 finger_block1012 0 CZ
3 0 4 T1 0 0 10 20 1 13 13 13 255 5 31 0 1 0 14 0 0 15 0 51 255 6 30 0 16 17 0 0
 -0 0 .001 0 0 -1 .036 -1 0 0 31 255 7 103 0 9 18 0 0 -0 0 .001 0 0 1 1 0 0 .034
 19 9 CCCCCCI5 frame230 0 CA5 owner12 0 Z8 9 0 1 15 0 19 0 V0 16 255 9 100 0 ?20
 0 21 7 0 0 1 17 255 20 0 22 20 20 0 23 9 0 0 +16 21 20 0 ?24 9 25 18 0 0 1 17 2
4 0 26 24 24 0 27 21 0 0 +16 25 54 0 ?28 21 29 30 0 0 1 31 18 25 0 21 31 7 0 +0
 0 0 0 0 1 1 0 0 .036 31 31 73 0 29 30 18 0 +0 0 0 0 0 1 1 0 0 .031 16 29 51 0 ?
32 25 33 31 0 0 1 31 30 74 0 25 34 31 0 +0 0 .001 0 0 1 1 0 0 .031 31 34 147 0 3
3 35 30 0 +0 0 .008 0 0 1 1 0 0 .034 16 33 178 0 ?36 29 37 34 0 0 1 31 35 214 0
 37 38 34 0 +0 0 .009 0 0 1 1 0 0 .036 16 37 175 0 ?39 33 40 35 0 0 1 31 38 215
 0 41 42 35 0 +0 0 .008 0 0 1 1 0 0 .031 16 41 172 0 ?43 40 0 38 0 0 1 31 42 216
 0 40 0 38 0 +0 0 .009 0 0 1 1 0 0 .031 16 40 182 0 ?44 37 41 42 0 0 1 17 44 0 4
5 44 44 0 46 40 0 0 +15 255 45 205 0 44 47 48 17 46 0 49 46 46 0 44 40 0 0 -15 4
9 192 0 46 50 0 14 255 50 189 51 ?47 52 53 5 54 +0 0 47 52 19 81 1 51 297 55 50
 56 0 0 57 58 14 47 202 57 ?0 50 45 5 59 +0 0 0 50 19 14 52 185 60 ?50 61 62 5 6
3 -0 0 50 61 19 15 53 191 0 39 50 49 50 255 54 211 0 50 59 63 0 +0 0 .009 0 0 1
 1 0 0 13 19 10 0 0 0 0 0 0 8 14 14 14 104 64 ?65 0 66 5 67 +0 0 65 0 19 81 1 64
 303 55 14 68 0 60 69 70 14 65 42 69 ?16 14 71 5 17 -0 0 16 14 19 15 66 45 0 72
 14 73 50 67 3 0 14 74 17 0 +0 0 .001 0 0 1 1 0 0 51 74 70 0 75 76 67 0 -0 0 .00
1 0 0 -1 .031 -1 0 0 50 17 24 0 65 67 6 0 +0 0 0 0 0 1 1 0 0 14 75 57 77 ?61 16
 78 5 74 +0 0 61 16 19 51 76 143 0 61 63 74 0 -0 0 .008 0 0 -1 .034 -1 0 0 14 61
 133 79 ?52 75 80 5 76 +0 0 52 75 19 50 63 210 0 52 54 76 0 +0 0 .008 0 0 1 1 0
 0 81 1 79 309 55 61 81 0 77 82 83 15 80 136 0 36 61 22 17 36 0 80 36 36 0 84 33
 0 0 +15 22 137 0 20 61 0 17 84 0 85 84 84 0 36 33 0 0 -15 85 188 0 84 52 0 80 7
 CCCCCDI12 legal_owners0 16 1 lCZ1 55 86 87 9000 1 1 1 1 1 1 1 1 0 FFFFTFTFFFFFF
FFF1 81 3 81 308 88 61 89 79 90 91 92 0 0 81 1 77 307 55 75 90 0 69 79 93 81 1 8
2 311 55 16 91 0 79 0 94 82 255 1 83 357892204 14 16 27 82 ?75 65 26 5 6 -0 0 75
 65 19 81 3 91 310 88 16 95 82 81 0 96 0 0 82 1 94 -884932496 80 3 88 97 98 9000
 0 0 0 0 3 5 0 0 0 FFFFTFFFFFFFFFFF1 1 1 81 1 95 262 99 16 0 91 100 101 102 82 6
 96 0 1760253458 31155997 0 0 0 80 1 99 0 103 8001 0 0 0 0 3 5 0 0 0 FFFFTFTFFFF
FFFFF2 81 1 100 261 99 65 0 104 105 95 106 81 1 101 263 99 75 0 90 95 89 107 83
 255 3 102 .2941176470588235 .2941176470588235 .2941176470588235 81 3 90 306 88
 75 101 77 104 81 108 0 0 81 1 89 264 99 61 0 81 101 109 110 83 3 107 .294117647
0588235 .2941176470588235 .2941176470588235 81 1 109 265 99 52 0 111 89 112 113
 83 3 110 .2941176470588235 .2941176470588235 .2941176470588235 81 3 111 300 88
 52 109 60 114 68 115 0 0 81 1 112 266 99 50 0 56 109 116 117 83 3 113 .29411764
70588235 .2941176470588235 .2941176470588235 81 3 56 296 88 50 112 51 0 114 118
 0 0 81 1 116 267 99 47 0 114 112 0 119 83 3 117 .2941176470588235 .294117647058
8235 .2941176470588235 81 3 114 298 88 47 116 57 56 111 120 0 0 83 3 119 .294117
6470588235 .2941176470588235 .2941176470588235 81 1 57 299 55 47 114 0 51 60 121
 82 6 120 0 1760253458 31155997 0 0 0 81 1 60 301 55 52 111 0 57 64 122 82 1 121
 1627455600 82 1 122 1635319920 82 6 118 0 1760253458 31155997 0 0 0 81 3 68 302
 88 14 105 64 111 104 123 0 0 82 6 115 0 1760253458 31155997 0 0 0 81 1 105 260
 99 14 0 68 0 100 124 81 3 104 304 88 65 100 69 68 90 125 0 0 82 6 123 0 1604670
202 31155997 0 0 0 81 1 69 305 55 65 104 0 64 77 126 82 6 125 0 1089286298 31155
997 0 0 0 82 1 126 -879099800 83 3 124 .2941176470588235 .2941176470588235 .2941
176470588235 82 6 108 0 1089286298 31155997 0 0 0 83 3 106 .2941176470588235 .29
41176470588235 .2941176470588235 79 255 15 103 SDL/TYSA_COLOUR79 18 98 DOWNSTREA
M_FACE_ID15 26 28 0 24 16 127 15 127 200 0 128 16 0 17 128 0 127 128 128 0 39 37
 0 0 -17 39 0 53 39 39 0 128 37 0 0 +82 1 93 -880803736 82 6 92 0 1604670202 311
55997 0 0 0 79 14 87 SWEntUnchanged15 78 60 0 28 75 129 17 28 0 78 28 28 0 72 25
 0 0 +15 129 61 0 130 75 0 17 130 0 129 130 130 0 32 29 0 0 -17 32 0 131 32 32 0
 130 29 0 0 +15 131 40 0 32 65 0 17 72 0 66 72 72 0 28 25 0 0 -15 73 102 0 23 14
 0 17 23 0 73 23 23 0 20 9 0 0 -15 71 19 0 27 65 131 17 27 0 71 27 27 0 24 21 0
 0 -82 1 70 365822060 51 59 212 0 47 0 54 0 -0 0 .009 0 0 -1 .031 -1 0 0 15 62 1
87 0 43 52 85 17 43 0 62 43 43 0 132 41 0 0 +17 132 0 48 132 132 0 43 41 0 0 -15
 48 206 0 132 47 0 82 1 58 1629683824 19 15 32 0 1 0 8 5 0 S0 74 4 CI16 index_ma
p_offset0 0 1 dCCZ20 13 10 0 0 91 82 133 134 135 136 137 11 116 2 0 0 0 0 0 0 0
 0 0 0 81 2 133 223 138 1 0 134 0 0 0 139 81 2 134 232 140 1 133 135 0 0 0 141 8
1 2 135 233 142 1 134 136 0 0 143 0 81 1 136 238 144 1 135 137 0 0 145 81 2 137
 247 146 1 136 11 0 0 0 147 81 2 11 258 148 1 137 2 0 0 0 0 80 2 148 149 150 900
0 0 0 0 0 3 5 0 0 0 FFTFFFFFFFFFFFFF9 1 79 16 150 BODY_RECIPE_200180 2 146 151 1
52 9000 0 0 0 0 3 5 0 0 0 FFTFFFFFFFFFFFFF9 1 82 1 147 1 79 24 152 BODY_IN_LIGHT
WEIGHT_PERM80 1 144 153 154 9000 1 1 1 1 1 1 1 1 0 FFTFFFFFFFFFFFFF1 82 1 145 11
00577 79 10 154 BODY_MATCH80 2 142 155 156 9000 0 0 0 0 3 5 0 0 0 FFTFTTTFFTFFFF
FF3 3 84 255 13 143 Boss-Extrude379 21 156 SWIMPLICITBODYNAME_ID80 2 140 157 158
 9000 0 0 0 0 3 5 0 0 0 FFTFFFFFFFFFFFFF9 1 82 1 141 52 79 30 158 LAST_BODY_MODI
FYING_FEATURE_ID80 2 138 159 160 9000 0 0 0 0 3 5 0 0 0 FFTFFFFFFFFFFTFF9 1 82 1
 139 107 79 19 160 ENT_TIME_STAMP_200180 2 10 161 162 9000 0 0 0 0 3 5 0 0 0 FFT
FFFFFFFFFFFFF9 1 82 1 12 103 79 12 162 ATOM_ID_20011 0 
