**ABCDEFGHIJKLMNOPQRSTUVWXYZabcdefghijklmnopqrstuvwxyz**************************
**PARASOLID !"#$%&'()*+,-./:;<=>?@[\]^_`{|}~0123456789**************************
**PART1;
MC=AMD64;
MC_MODEL=Intel64 Family 6 Model 126 Stepping 5, GenuineIntel;
MC_ID=unknown;
OS=Windows_NT;
OS_RELEASE=unknown;
FRU=Parasolid Version 34.1, build 225,  5-24-2022;
APPL=SOLIDWORKS 2023-2022300;
SITE=;
USER=unknown;
FORMAT=text;
GUISE=transmit;
KEY=wheel;
FILE=wheel.x_t;
DATE=Wed Jan 22 10:12:18 2025;
**PART2;
SCH=SCH_3401225_34101;
USFLD_SIZE=0;
**PART3;
**END_OF_HEADER*****************************************************************
T51 : TRANSMIT FILE created by modeller version 340122523 SCH_3401225_34101_1300
6231 0 12 36 CCCI7 lattice222 0 CCCI4 mesh1006 0 I8 polyline1008 0 CCCCCCCDI5 ow
ner1040 0 CCCI16 boundary_lattice222 0 CCCI13 boundary_mesh1006 0 I17 boundary_p
olyline1008 0 CCCA16 index_map_offset0 0 1 dA9 index_map82 0 A17 node_id_index_m
ap82 0 A20 schema_embedding_map82 0 A5 child12 0 A14 lowest_node_id0 0 1 dA16 me
sh_offset_data206 0 Z1 591 2 3 0 0 0 0 0 0 0 1e3 1e-8 0 4 0 1 0 1 1 5 0 6 7 0 0
 0 8 9 0 0 0 0 0 0 0 0 81 255 2 2 563 10 1 11 0 0 0 0 12 70 11 CI9 list_type0 0
 1 uI10 notransmit0 0 1 lCCCDCCDI12 finger_index0 0 1 dI12 finger_block1012 0 CZ
3 0 4 T1 0 0 10 20 1 13 13 13 255 5 31 0 1 0 14 0 0 15 0 51 255 6 30 0 14 16 0 0
 -0 0 .007 0 0 -1 .0335 -1 0 0 31 255 7 25 0 17 18 0 0 +0 0 0 0 0 1 1 0 0 .0335
 19 9 CCCCCCI5 frame230 0 CA5 owner12 0 Z8 9 0 1 15 0 19 0 V0 16 255 9 5 0 ?20 0
 17 18 0 0 1 17 255 20 0 21 20 20 0 22 9 0 0 +16 17 20 0 ?23 9 24 7 0 0 1 31 18
 7 0 9 25 7 0 +0 0 .007 0 0 1 1 0 0 .0335 31 25 88 0 26 27 18 0 +.00032912580804
9266 0 .007 0 0 1 1 0 0 .03 16 26 69 0 ?28 24 29 25 0 0 1 31 27 89 0 24 30 25 0
 +.000329125808049266 0 .002 0 0 1 1 0 0 .03 16 24 66 0 ?31 17 26 27 0 0 1 31 30
 132 0 32 33 27 0 +0 0 .002 0 0 1 1 0 0 .008 16 32 110 0 ?34 29 35 30 0 0 1 31 3
3 133 0 29 36 30 0 +0 0 .012 0 0 1 1 0 0 .008 16 29 113 0 ?37 26 32 33 0 0 1 31
 36 189 0 35 38 33 0 +0 0 0 0 0 1 1 0 0 .002 16 35 161 0 ?39 32 40 36 0 0 1 31 3
8 190 0 40 41 36 0 +0 0 .012 0 0 1 1 0 0 .002 16 40 165 0 ?42 35 43 38 0 0 1 31
 41 239 0 44 45 38 0 +0 .0171968234705741 .002 0 0 1 1 0 0 .006 16 44 220 0 ?46
 43 47 41 0 0 1 31 45 240 0 43 48 41 0 +0 .0171968234705741 0 0 0 1 1 0 0 .006 1
6 43 217 0 ?49 40 44 45 0 0 1 31 48 436 0 50 51 45 0 +-.01489288598991366 .00859
841173528702 .002 0 0 1 .5 .86602540378444 0 .006 16 50 397 0 ?52 47 53 48 0 0 1
 31 51 437 0 47 54 48 0 +-.01489288598991366 .00859841173528702 0 0 0 1 .5 .8660
2540378444 0 .006 16 47 394 0 ?55 44 50 51 0 0 1 31 54 438 0 56 57 51 0 +.014892
88598991354 .00859841173528723 .002 0 0 1 .50000000000001 -.866025403784433 0 .0
06 16 56 325 0 ?58 59 0 54 0 0 1 31 57 439 0 59 60 54 0 +.01489288598991354 .008
59841173528723 0 0 0 1 .50000000000001 -.866025403784433 0 .006 16 59 322 0 ?61
 62 56 57 0 0 1 31 60 440 0 62 63 57 0 +.01489288598991372 -.00859841173528691 .
002 0 0 1 -.499999999999992 -.866025403784443 0 .006 16 62 343 0 ?64 65 59 60 0
 0 1 31 63 441 0 65 66 60 0 +.01489288598991372 -.00859841173528691 0 0 0 1 -.49
9999999999992 -.866025403784443 0 .006 16 65 340 0 ?67 68 62 63 0 0 1 31 66 442
 0 68 69 63 0 +0 -.0171968234705741 .002 0 0 1 -1 0 0 .006 16 68 361 0 ?70 71 65
 66 0 0 1 31 69 443 0 71 72 66 0 +0 -.0171968234705741 0 0 0 1 -1 0 0 .006 16 71
 358 0 ?73 74 68 69 0 0 1 31 72 444 0 74 75 69 0 +-.0148928859899136 -.008598411
73528712 .002 0 0 1 -.5 .866025403784437 0 .006 16 74 379 0 ?76 53 71 72 0 0 1 3
1 75 445 0 53 0 72 0 +-.0148928859899136 -.00859841173528712 0 0 0 1 -.5 .866025
403784437 0 .006 16 53 376 0 ?77 50 74 75 0 0 1 17 77 0 78 77 77 0 79 53 0 0 +15
 255 78 294 0 77 80 81 17 79 0 82 79 79 0 77 53 0 0 -15 82 385 0 79 83 84 14 255
 83 382 85 ?86 87 82 5 88 -0 0 86 87 19 15 84 386 0 76 83 0 17 76 0 84 76 76 0 8
9 74 0 0 +17 89 0 90 89 89 0 76 74 0 0 -15 90 260 0 89 91 92 14 91 77 93 ?94 95
 96 5 97 +0 0 94 95 19 15 92 253 0 98 91 99 17 98 0 92 98 98 0 52 50 0 0 -15 99
 204 0 100 91 101 17 100 0 99 100 100 0 46 44 0 0 -15 101 103 0 102 91 103 17 10
2 0 101 102 102 0 34 32 0 0 -15 103 79 0 31 91 0 17 31 0 103 31 31 0 104 24 0 0
 +17 104 0 105 104 104 0 31 24 0 0 -15 105 75 0 104 95 106 14 95 72 107 ?91 80 1
05 5 108 -0 0 91 80 19 15 106 76 0 28 95 0 17 28 0 106 28 28 0 109 26 0 0 +17 10
9 0 110 109 109 0 28 26 0 0 -15 110 60 0 109 111 21 14 111 1 112 ?80 14 110 5 11
3 +0 0 80 14 19 15 21 4 0 20 111 0 81 1 112 571 114 111 115 0 107 116 117 14 80
 18 116 ?95 111 118 5 16 -0 0 95 111 19 14 14 27 119 ?111 0 120 5 6 -0 0 111 0 1
9 50 255 113 3 0 111 108 16 0 +0 0 .007 0 0 1 1 0 0 13 19 10 0 0 0 0 0 0 8 14 51
 108 85 0 95 97 113 0 +.000329125808049266 0 .002 0 0 1 .03 1 0 0 50 16 24 0 80
 113 6 0 +0 0 0 0 0 1 1 0 0 50 97 87 0 91 121 108 0 +.000329125808049266 0 .002
 0 0 1 1 0 0 51 121 129 0 94 122 97 0 -0 0 .012 0 0 -1 .008 -1 0 0 14 94 116 123
 ?124 91 125 5 121 -0 0 124 91 19 50 122 131 0 124 126 121 0 +0 0 .012 0 0 1 1 0
 0 14 124 121 127 ?128 94 129 5 122 +0 0 128 94 19 51 126 186 0 128 130 122 0 +0
 0 -.018 0 0 1 .002 1 0 0 14 128 168 131 ?132 124 133 5 126 -0 0 132 124 19 51 1
30 236 0 132 134 126 0 +0 .0171968234705741 0 0 0 1 .006 1 0 0 14 132 223 135 ?8
7 128 136 5 130 -0 0 87 128 19 51 134 421 0 87 137 130 0 +-.01489288598991366 .0
0859841173528702 0 0 0 1 .006 1 0 0 14 87 400 138 ?83 132 139 5 134 -0 0 83 132
 19 51 137 424 0 140 141 134 0 +.01489288598991354 .00859841173528723 0 0 0 1 .0
06 1 0 0 14 140 328 142 ?0 143 144 5 137 -0 0 0 143 19 51 141 427 0 143 145 137
 0 +.01489288598991372 -.00859841173528691 0 0 0 1 .006 1 0 0 14 143 346 146 ?14
0 86 147 5 141 -0 0 140 86 19 51 145 430 0 86 88 141 0 +0 -.0171968234705741 0 0
 0 1 .006 1 0 0 14 86 364 148 ?143 83 149 5 145 -0 0 143 83 19 51 88 433 0 83 0
 145 0 +-.0148928859899136 -.00859841173528712 0 0 0 1 .006 1 0 0 81 1 148 591 1
14 86 150 0 146 0 151 15 149 367 0 152 86 153 17 152 0 149 152 152 0 73 71 0 0 -
15 153 368 0 70 86 0 17 70 0 153 70 70 0 154 68 0 0 +17 154 0 155 154 154 0 70 6
8 0 0 -15 155 267 0 154 91 90 17 73 0 156 73 73 0 152 71 0 0 +15 156 301 0 73 80
 78 80 7 CCCCCDI12 legal_owners0 16 1 lCZ1 114 157 158 9000 1 1 1 1 1 1 1 1 0 FF
FFTFTFFFFFFFFF1 81 3 150 590 159 86 160 148 161 0 162 0 0 81 1 146 589 114 143 1
61 0 142 148 163 82 255 1 151 2147156090 81 3 161 588 159 143 164 146 165 150 16
6 0 0 81 1 142 587 114 140 165 0 138 146 167 82 1 163 -2140405638 81 3 165 586 1
59 140 168 142 169 161 170 0 0 81 1 138 585 114 87 169 0 135 142 171 82 1 167 -2
133000070 81 3 169 584 159 87 172 138 173 165 174 0 0 81 1 135 583 114 132 173 0
 131 138 175 82 1 171 2129723514 81 3 173 582 159 132 176 135 177 169 178 0 0 81
 1 131 581 114 128 177 0 127 135 179 82 1 175 1966473336 81 3 177 580 159 128 18
0 131 181 173 182 0 0 81 1 127 579 114 124 181 0 123 131 183 82 1 179 659226740
 81 3 181 578 159 124 184 127 185 177 186 0 0 81 1 123 577 114 94 185 0 119 127
 187 82 1 183 231276660 81 3 185 576 159 94 188 123 189 181 190 0 0 81 1 119 575
 114 14 189 0 116 123 191 82 1 187 233242736 81 3 189 574 159 14 192 119 193 185
 194 0 0 81 1 116 573 114 80 193 0 112 119 195 82 1 191 1956577384 81 3 193 572
 159 80 196 116 115 189 197 0 0 82 1 195 1956315258 80 3 159 198 199 9000 0 0 0
 0 3 5 0 0 0 FFFFTFFFFFFFFFFF1 1 1 81 1 196 508 200 80 0 193 201 202 203 81 3 11
5 570 159 111 201 112 204 193 205 0 0 82 6 197 0 -1501693505 31155995 0 0 0 81 1
 201 507 200 111 0 115 192 196 206 81 3 204 568 159 95 202 107 207 115 208 0 0 8
2 6 205 0 1703666003 31155995 0 0 0 81 1 202 509 200 95 0 204 196 209 210 81 1 1
07 569 114 95 204 0 93 112 211 81 3 207 566 159 91 209 93 212 204 213 0 0 82 6 2
08 0 1703666003 31155995 0 0 0 81 1 209 510 200 91 0 207 202 188 214 81 1 93 567
 114 91 207 0 85 107 215 81 3 212 564 159 83 216 85 0 207 217 0 0 82 6 213 0 -15
01693505 31155995 0 0 0 81 1 216 516 200 83 0 212 172 160 218 81 1 85 565 114 83
 212 0 0 93 219 82 6 217 0 -1501693505 31155995 0 0 0 82 1 219 2139750522 80 1 2
00 0 220 8001 0 0 0 0 3 5 0 0 0 FFFFTFTFFFFFFFFF2 81 1 172 515 200 87 0 169 176
 216 221 81 1 160 517 200 86 0 150 216 164 222 83 255 3 218 .776470588235294 .75
6862745098039 .737254901960784 81 1 164 518 200 143 0 161 160 168 223 83 3 222 .
776470588235294 .756862745098039 .737254901960784 81 1 168 519 200 140 0 165 164
 0 224 83 3 223 .776470588235294 .756862745098039 .737254901960784 83 3 224 .776
470588235294 .756862745098039 .737254901960784 81 1 176 514 200 132 0 173 180 17
2 225 83 3 221 .776470588235294 .756862745098039 .737254901960784 81 1 180 513 2
00 128 0 177 184 176 226 83 3 225 .776470588235294 .756862745098039 .73725490196
0784 81 1 184 512 200 124 0 181 188 180 227 83 3 226 .776470588235294 .756862745
098039 .737254901960784 81 1 188 511 200 94 0 185 209 184 228 83 3 227 .77647058
8235294 .756862745098039 .737254901960784 83 3 228 .776470588235294 .75686274509
8039 .737254901960784 79 255 15 220 SDL/TYSA_COLOUR82 1 215 -825294726 83 3 214
 .776470588235294 .756862745098039 .737254901960784 82 1 211 -823328660 83 3 210
 .776470588235294 .756862745098039 .737254901960784 81 1 192 506 200 14 0 189 0
 201 229 83 3 206 .776470588235294 .756862745098039 .737254901960784 83 3 229 .7
76470588235294 .756862745098039 .737254901960784 83 3 203 .776470588235294 .7568
62745098039 .737254901960784 79 18 199 DOWNSTREAM_FACE_ID82 6 194 0 1064199773 3
1155995 0 0 0 82 6 190 0 -2067304559 31155995 0 0 0 82 6 186 0 -1932383020 31155
995 0 0 0 82 6 182 0 -1932383020 31155995 0 0 0 82 6 178 0 -1641890908 31155995
 0 0 0 82 6 174 0 -1501693505 31155995 0 0 0 82 6 170 0 -1501693505 31155995 0 0
 0 82 6 166 0 -1501693505 31155995 0 0 0 82 6 162 0 -1501693505 31155995 0 0 0 7
9 14 158 SWEntUnchanged15 147 349 0 230 143 231 17 230 0 147 230 230 0 67 65 0 0
 -15 231 350 0 64 143 0 17 64 0 231 64 64 0 232 62 0 0 +17 232 0 233 232 232 0 6
4 62 0 0 -15 233 274 0 232 91 155 17 67 0 234 67 67 0 230 65 0 0 +15 234 308 0 6
7 80 156 15 144 331 0 235 140 236 17 235 0 144 235 235 0 61 59 0 0 -15 236 332 0
 58 140 0 17 58 0 236 58 58 0 237 56 0 0 +17 237 0 96 237 237 0 58 56 0 0 -15 96
 281 0 237 91 233 17 61 0 118 61 61 0 235 59 0 0 +15 118 315 0 61 80 234 15 139
 403 0 238 87 239 17 238 0 139 238 238 0 55 47 0 0 -15 239 404 0 52 87 0 17 52 0
 239 52 52 0 98 50 0 0 +17 55 0 81 55 55 0 238 47 0 0 +15 81 287 0 55 80 240 15
 240 210 0 49 80 241 17 49 0 240 49 49 0 242 43 0 0 +15 241 155 0 39 80 243 17 3
9 0 241 39 39 0 244 35 0 0 +15 243 19 0 245 80 0 17 245 0 243 245 245 0 23 17 0
 0 -17 23 0 246 23 23 0 245 17 0 0 +15 246 28 0 23 14 0 17 244 0 247 244 244 0 3
9 35 0 0 -15 247 172 0 244 128 0 17 242 0 136 242 242 0 49 43 0 0 -15 136 226 0
 242 132 248 15 248 227 0 46 132 0 17 46 0 248 46 46 0 100 44 0 0 +15 133 171 0
 42 128 247 17 42 0 133 42 42 0 249 40 0 0 +17 249 0 129 249 249 0 42 40 0 0 -15
 129 149 0 249 124 250 15 250 123 0 37 124 0 17 37 0 250 37 37 0 251 29 0 0 +17
 251 0 125 251 251 0 37 29 0 0 -15 125 119 0 251 94 252 15 252 120 0 34 94 0 17
 34 0 252 34 34 0 102 32 0 0 +15 120 26 0 22 14 246 17 22 0 120 22 22 0 20 9 0 0
 -82 1 117 1954611308 19 15 32 0 1 0 8 5 0 S0 74 4 CI16 index_map_offset0 0 1 dC
CZ20 13 10 0 0 150 148 253 254 255 256 257 11 168 2 0 0 0 0 0 0 0 0 0 0 81 2 253
 134 258 1 0 254 0 0 0 259 81 2 254 140 260 1 253 255 0 0 0 261 81 2 255 141 262
 1 254 256 0 0 263 0 81 1 256 472 264 1 255 257 0 0 265 81 2 257 487 266 1 256 1
1 0 0 0 267 81 2 11 504 268 1 257 2 0 0 0 0 80 2 268 269 270 9000 0 0 0 0 3 5 0
 0 0 FFTFFFFFFFFFFFFF9 1 79 16 270 BODY_RECIPE_200180 2 266 271 272 9000 0 0 0 0
 3 5 0 0 0 FFTFFFFFFFFFFFFF9 1 82 1 267 1 79 24 272 BODY_IN_LIGHTWEIGHT_PERM80 1
 264 273 274 9000 1 1 1 1 1 1 1 1 0 FFTFFFFFFFFFFFFF1 82 1 265 29823 79 10 274 B
ODY_MATCH80 2 262 275 276 9000 0 0 0 0 3 5 0 0 0 FFTFTTTFFTFFFFFF3 3 84 255 11 2
63 CirPattern179 21 276 SWIMPLICITBODYNAME_ID80 2 260 277 278 9000 0 0 0 0 3 5 0
 0 0 FFTFFFFFFFFFFFFF9 1 82 1 261 76 79 30 278 LAST_BODY_MODIFYING_FEATURE_ID80
 2 258 279 280 9000 0 0 0 0 3 5 0 0 0 FFTFFFFFFFFFFTFF9 1 82 1 259 118 79 19 280
 ENT_TIME_STAMP_200180 2 10 281 282 9000 0 0 0 0 3 5 0 0 0 FFTFFFFFFFFFFFFF9 1 8
2 1 12 106 79 12 282 ATOM_ID_20011 0 
